<svg width="18" height="20" viewBox="0 0 18 20" fill="none" xmlns="http://www.w3.org/2000/svg">
<path d="M9.14939 5.67696C10.472 5.41033 11.7389 4.64392 13.1512 4.74391C14.8436 4.87724 16.1214 5.54371 16.962 6.74346C13.4649 8.821 14.2943 13.3875 17.5 14.6652C16.8611 16.3316 16.0316 17.9869 14.653 19.2089L14.6645 19.1975C13.566 20.2529 12.3666 20.0864 11.2121 19.5865C9.99041 19.0754 8.86929 19.0532 7.5803 19.5865C5.96632 20.2752 5.11433 20.0752 4.15041 19.1975C-1.31912 13.6093 -0.511853 5.09947 5.69761 4.7884C7.21051 4.86621 8.26401 5.61017 9.14939 5.67696Z" fill="#DDDDDD"/>
<path d="M13.2295 0C13.5545 2.86623 10.607 4.99924 9.03774 4.72167C8.86962 2.24422 10.8981 0.200035 13.2295 0Z" fill="#DDDDDD"/>
</svg>
