<svg width="78" height="60" viewBox="0 0 78 60" fill="none" xmlns="http://www.w3.org/2000/svg">
<path d="M29.2951 0C34.6256 0.998876 42.396 3.3635 46.5715 4.78228C57.1937 8.46343 60.7956 13.0487 60.7956 23.372C60.7955 33.4342 54.6417 37.2498 46.8227 33.4381V14.6898C46.8227 12.4874 46.4195 10.4603 44.372 9.88856C42.8082 9.38133 41.836 10.8495 41.8358 13.0474V60L29.2951 55.9794V0Z" fill="#98E4FF"/>
<path d="M54.3338 37.2381C59.7974 36.631 66.4866 37.3237 71.7366 39.3319C77.6513 41.2201 78.3155 44.0056 76.8175 45.922C75.3121 47.838 71.6273 49.2032 71.6273 49.2032L44.2147 59.1452V51.8124L64.3896 44.5519C66.6785 43.7261 67.0289 42.5535 65.1706 41.9393C63.3122 41.3252 59.9486 41.4994 57.6561 42.3323L44.2147 47.1111V39.5042L44.9889 39.2371C44.9889 39.2371 48.8737 37.8486 54.3338 37.2381Z" fill="#98E4FF"/>
<path d="M26.858 41.1983L13.9157 45.8755C11.6303 46.7013 11.28 47.8722 13.1347 48.4863C14.9966 49.104 18.3601 48.9279 20.6492 48.0986L26.858 45.8255V52.4087L25.619 52.6206C19.4101 53.644 12.7984 53.2159 6.28152 51.0489C0.205803 49.3195 -0.805439 45.7206 1.96285 43.6489C4.52139 41.736 8.8758 40.2953 8.8758 40.2953L26.858 33.8362V41.1983Z" fill="#98E4FF"/>
</svg>
