<svg width="66" height="14" viewBox="0 0 66 14" fill="none" xmlns="http://www.w3.org/2000/svg">
<path d="M64.9505 0V1.49815H47.9884V4.93755C47.9776 5.13323 48.0216 5.32894 48.1173 5.49986C48.2133 5.67092 48.3573 5.81056 48.5299 5.90321C48.709 5.9957 48.9077 6.04376 49.1092 6.04031H61.1657C61.9038 6.03943 62.6344 6.19678 63.3061 6.50326C64.3433 6.98613 65.4999 7.96841 65.5 9.94862C65.5 13.8138 61.7755 13.9974 61.7172 14H45.0526V12.482H59.9934C60.5214 12.4859 61.0396 12.3357 61.4831 12.0488C62.0167 11.6934 62.5583 11.0584 62.5583 9.94068C62.5582 8.69593 61.7958 8.07687 61.1161 7.77292C60.6777 7.58585 60.2041 7.48986 59.7276 7.49078H47.5659C44.9903 7.49078 45.0486 5.40448 45.0486 5.40448V0H64.9505Z" fill="white"/>
<path d="M42.0295 0V1.49617H34.6623C34.1694 1.49022 33.6897 1.65288 33.3015 1.95714C33.0276 2.17844 32.8069 2.45895 32.6568 2.77775C32.5067 3.0968 32.4307 3.44635 32.4347 3.79903V10.2467C32.4464 10.7669 32.3418 11.2839 32.1292 11.7587C31.9165 12.2336 31.6006 12.6555 31.2048 12.9926C30.4359 13.6474 29.4567 14.0032 28.4475 13.994H19.9992V12.478L27.2831 12.48C27.6448 12.4911 28.0031 12.4056 28.3206 12.2316C28.6379 12.0577 28.9026 11.8014 29.0883 11.4905C29.3458 11.0706 29.4794 10.5845 29.4731 10.0917V4.06926C29.4736 0.0605486 33.2579 0 33.2579 0H42.0295Z" fill="white"/>
<path d="M17.2162 0C17.2551 0.000558203 20.9329 0.0640644 20.9335 3.78711C20.9335 6.1934 19.2088 7.04334 18.1743 7.34175C17.8102 7.44331 17.4333 7.4934 17.0555 7.49078H5.79831C4.38456 7.49078 3.77727 8.47644 3.53894 9.09225C3.44489 9.34079 3.39702 9.60533 3.3981 9.87113V13.9821H0.5V9.85325C0.500249 8.03875 1.53298 6.94001 2.46182 6.47346C3.05661 6.18506 3.70928 6.03721 4.37009 6.04031H15.536C15.961 6.04074 16.3827 5.9497 16.7698 5.77406C17.1569 5.61087 17.4858 5.33366 17.7121 4.97928C17.9384 4.62461 18.0521 4.20782 18.0374 3.78711C18.037 2.61615 17.3654 2.0379 16.7698 1.75844C16.3895 1.58326 15.9744 1.49448 15.5558 1.49815H0.5V0H17.2162Z" fill="white"/>
</svg>
