<svg width="28" height="28" viewBox="0 0 28 28" fill="none" xmlns="http://www.w3.org/2000/svg">
<path fill-rule="evenodd" clip-rule="evenodd" d="M14 0.25C17.6467 0.25 21.1443 1.69848 23.7229 4.2771C26.3015 6.85572 27.75 10.3533 27.75 14C27.75 17.6467 26.3015 21.1443 23.7229 23.7229C21.1443 26.3015 17.6467 27.75 14 27.75C10.3533 27.75 6.85572 26.3015 4.2771 23.7229C1.85977 21.3056 0.435816 18.0807 0.26709 14.6824L0.25 14C0.25 10.3533 1.69848 6.85572 4.2771 4.2771C6.85572 1.69848 10.3533 0.25 14 0.25ZM14 5.25C11.6794 5.25 9.4532 6.17131 7.81226 7.81226C6.17131 9.4532 5.25 11.6794 5.25 14L5.26099 14.4333C5.36816 16.5962 6.27375 18.6492 7.81226 20.1877C9.4532 21.8287 11.6794 22.75 14 22.75C16.3206 22.75 18.5468 21.8287 20.1877 20.1877C21.8287 18.5468 22.75 16.3206 22.75 14C22.75 11.6794 21.8287 9.4532 20.1877 7.81226C18.5468 6.17131 16.3206 5.25 14 5.25Z" fill="#FF7272"/>
</svg>
