<svg width="26" height="26" viewBox="0 0 26 26" fill="none" xmlns="http://www.w3.org/2000/svg">
<path fill-rule="evenodd" clip-rule="evenodd" d="M20.7478 0.506104C21.9837 0.567381 23.156 1.08574 24.0352 1.96484C24.9728 2.90252 25.5 4.17392 25.5 5.5V20.5C25.5 21.8261 24.9728 23.0975 24.0352 24.0352C23.0975 24.9728 21.8261 25.5 20.5 25.5H5.5C4.17392 25.5 2.90252 24.9728 1.96484 24.0352C1.08574 23.156 0.567381 21.9837 0.506104 20.7478L0.5 20.5V5.5C0.5 4.17392 1.02716 2.90252 1.96484 1.96484C2.90252 1.02716 4.17392 0.5 5.5 0.5H20.5L20.7478 0.506104ZM5.5 20.5H20.5V5.5H5.5V20.5Z" fill="#E98CF8"/>
</svg>
