<svg width="92" height="28" viewBox="0 0 92 28" fill="none" xmlns="http://www.w3.org/2000/svg">
<path d="M13.8057 0.188477C21.4302 0.188477 27.6121 6.39579 27.6123 14.0537C27.6123 21.7106 21.4307 27.9189 13.8057 27.9189C7.48569 27.9188 2.16188 23.6518 0.523438 17.832L5.81543 20.0293C6.17369 21.8249 7.75505 23.1805 9.64648 23.1807C11.8015 23.1807 13.5547 21.4204 13.5547 19.2559C13.5547 19.1939 13.5523 19.1313 13.5498 19.0703L18.2432 15.708C18.2824 15.7089 18.3218 15.709 18.3613 15.709C21.2321 15.709 23.5682 13.3636 23.5684 10.4805C23.5684 7.59719 21.2322 5.25098 18.3613 5.25098C15.4902 5.25115 13.1553 7.59729 13.1553 10.4805C13.1553 10.5029 13.1553 10.5251 13.1553 10.5479L9.86426 15.3379C9.7923 15.3338 9.71938 15.3311 9.64648 15.3311C8.83174 15.3311 8.07417 15.584 7.44727 16.0146L0.0478516 12.9414C0.612596 5.80451 6.55361 0.188677 13.8057 0.188477Z" fill="white"/>
<path d="M8.60938 16.4961C9.28466 16.2401 10.0531 16.2294 10.7705 16.5293C11.4936 16.8321 12.0565 17.3995 12.3545 18.127C12.653 18.854 12.6507 19.6548 12.3496 20.3799C11.7276 21.8799 10.007 22.5911 8.51465 21.9668C7.82444 21.6778 7.30446 21.1517 7.00391 20.5234L8.7002 21.2266C9.80079 21.6874 11.0655 21.1651 11.5234 20.0596C11.9822 18.9541 11.4611 17.6844 10.3604 17.2236L8.60938 16.4961Z" fill="white"/>
<path d="M38.8623 8.65234C40.4154 8.65238 41.6639 9.14608 42.3564 9.6748L41.4316 11.3086C40.7191 10.8087 39.7531 10.5068 38.9102 10.5068C37.9469 10.5068 37.3508 10.9078 37.3506 11.625C37.3506 12.4967 38.4095 12.7003 39.9834 13.2676C41.675 13.8684 42.6473 14.574 42.6475 16.1299C42.6475 18.259 40.9802 19.4551 38.584 19.4551C37.4163 19.455 36.0076 19.1527 34.9248 18.4912L35.5996 16.6807C36.4793 17.1473 37.5317 17.4238 38.4697 17.4238C39.7343 17.4238 40.3359 16.9553 40.3359 16.2627C40.3359 15.47 39.4191 15.2313 37.9395 14.7393C36.2532 14.1738 35.085 13.4323 35.085 11.71C35.085 9.76761 36.6337 8.65234 38.8623 8.65234Z" fill="white"/>
<path d="M52.7393 10.707H49.5879V19.2764H47.4092V10.707H44.248V8.83105H52.7393V10.707Z" fill="white"/>
<path d="M62.167 10.7012H57.3311V13.0557H61.499V14.9316H57.3311V17.3828H62.167V19.2764H55.1533V8.83105H62.167V10.7012Z" fill="white"/>
<path fill-rule="evenodd" clip-rule="evenodd" d="M74.1582 19.2764H71.7979L71.0947 17.248H67.0283L66.3398 19.2764H64.0566L67.9561 8.83105H70.1484L74.1582 19.2764ZM67.6201 15.5049H70.4902L69.04 11.3232L67.6201 15.5049Z" fill="white"/>
<path d="M81.9521 16.3711L85.3232 8.83105H87.4229V19.2764H85.3369V12.8682L82.4912 18.9717H81.2617L78.4619 12.9229V19.2764H76.376V8.83105H78.457L81.9521 16.3711Z" fill="white"/>
<path fill-rule="evenodd" clip-rule="evenodd" d="M18.3613 6.99609C20.2744 6.99609 21.8311 8.55943 21.8311 10.4805C21.8308 12.4013 20.2743 13.9636 18.3613 13.9639C16.4489 13.9636 14.8928 12.4014 14.8926 10.4805C14.8926 8.55958 16.4487 6.99634 18.3613 6.99609ZM18.3682 7.85645C16.9289 7.85645 15.7619 9.02826 15.7617 10.4736C15.7617 11.9189 16.9288 13.0908 18.3682 13.0908C19.8073 13.0906 20.9736 11.919 20.9736 10.4736C20.9734 9.02841 19.8072 7.85669 18.3682 7.85645Z" fill="white"/>
<path fill-rule="evenodd" clip-rule="evenodd" d="M90.2148 9.40625C90.5877 9.40629 90.7129 9.60431 90.7129 9.81836C90.7129 10.0145 90.5971 10.1458 90.4561 10.2129L90.791 10.8418H90.5166L90.2354 10.2842H89.9443V10.8418H89.7168V9.40625H90.2148ZM89.9463 10.0742H90.2002C90.3647 10.0742 90.4619 9.97023 90.4619 9.83984C90.4618 9.70845 90.3925 9.62406 90.2002 9.62402H89.9463V10.0742Z" fill="white"/>
<path fill-rule="evenodd" clip-rule="evenodd" d="M90.1943 8.69531C90.9633 8.69531 91.6327 9.25119 91.6328 10.1484C91.6328 11.0461 90.963 11.6055 90.1943 11.6055C89.423 11.6053 88.752 11.046 88.752 10.1484C88.7521 9.25135 89.4231 8.69551 90.1943 8.69531ZM90.1943 8.93066C89.5342 8.93086 88.9942 9.40117 88.9941 10.1484C88.9941 10.8993 89.5323 11.3709 90.1943 11.3711C90.8541 11.3711 91.3906 10.8994 91.3906 10.1484C91.3905 9.39537 90.854 8.93066 90.1943 8.93066Z" fill="white"/>
</svg>
