<svg width="28" height="28" viewBox="0 0 28 28" fill="none" xmlns="http://www.w3.org/2000/svg">
<path d="M14 11.218C18.1831 14.3778 25.4083 22.3072 23.2195 24.5392C20.6689 26.7745 17.3915 28.0047 14 28C10.8224 28.004 7.74553 26.9231 5.27372 24.9463L4.7846 24.5392C2.59035 22.3071 9.8211 14.3778 14 11.218Z" fill="white"/>
<path d="M23.4123 3.9417C23.5237 3.94067 23.635 3.95879 23.7404 3.99502C23.7994 4.01732 23.831 4.04141 23.8347 4.04424C25.156 5.34403 26.2051 6.89439 26.9202 8.60426C27.6354 10.3141 28.0024 12.1497 28 14.0031C28.0055 17.2039 26.9089 20.309 24.894 22.796C26.5354 19.7631 20.7214 11.1853 17.8053 7.73163C21.095 4.45038 22.7206 3.94177 23.4123 3.9417Z" fill="white"/>
<path d="M4.59182 3.94477C5.28063 3.94478 6.90893 4.44884 10.1988 7.73163C7.28112 11.1827 1.47151 19.7545 3.10394 22.794C1.1649 20.3901 1.53664e-05 17.3348 1.53664e-05 14.0041C-0.00273645 12.151 0.364135 10.3161 1.07875 8.60631C1.79342 6.89644 2.84145 5.3453 4.16217 4.04526C4.16846 4.04311 4.19681 4.02042 4.26266 3.99707L4.26369 3.99912C4.36817 3.9593 4.48007 3.94099 4.59182 3.94477Z" fill="white"/>
<path d="M14 0C16.7231 0 19.3736 0.752619 21.8936 2.43126C21.8152 2.37806 21.1763 1.99727 20.1207 2.03647C17.4448 2.13151 14.0201 4.1248 14 4.13652V4.14268C14 4.14268 10.5648 2.13191 7.88237 2.03647C6.82815 1.99867 6.18336 2.38086 6.10636 2.43126C8.60962 0.754019 11.2703 0 13.9836 0H14Z" fill="white"/>
</svg>
