<svg width="24" height="24" viewBox="0 0 24 24" fill="none" xmlns="http://www.w3.org/2000/svg">
<path d="M1.4825 1.4825C2.39778 0.56722 3.84651 0.509527 4.82844 1.31038L5.01765 1.4825L12.0001 8.46492L18.9825 1.4825L19.1717 1.31038C20.1536 0.509434 21.6023 0.56731 22.5177 1.4825C23.433 2.39783 23.4907 3.84651 22.6898 4.82845L22.5177 5.01766L15.5352 12.0001L22.5177 18.9825L22.6898 19.1717C23.4908 20.1536 23.433 21.6023 22.5177 22.5177C21.6023 23.433 20.1536 23.4908 19.1717 22.6898L18.9825 22.5177L12.0001 15.5352L5.01765 22.5177C4.04134 23.494 2.45881 23.494 1.4825 22.5177C0.506331 21.5413 0.506234 19.9588 1.4825 18.9825L8.46492 12.0001L1.4825 5.01766L1.31038 4.82845C0.509522 3.84652 0.567214 2.39778 1.4825 1.4825Z" fill="#8FA9FF"/>
</svg>
