<svg width="20" height="21" viewBox="0 0 20 21" fill="none" xmlns="http://www.w3.org/2000/svg">
<path fill-rule="evenodd" clip-rule="evenodd" d="M10.4393 0.51011C10.5186 0.494551 10.5992 0.500358 10.6746 0.524816C13.0803 0.687463 15.3551 1.71355 17.0708 3.42923C18.9461 5.30459 20 7.84784 20 10.5C20 11.8132 19.7415 13.1139 19.239 14.3272C18.7364 15.5404 17.9993 16.6423 17.0708 17.5708C16.1423 18.4993 15.0404 19.2364 13.8272 19.739C12.8217 20.1555 11.7558 20.4021 10.6728 20.4752C10.5975 20.4993 10.5174 20.5047 10.4384 20.489L10 20.5C9.8561 20.5 9.71243 20.4952 9.56893 20.489C9.4853 20.5068 9.39934 20.5011 9.31985 20.4743C8.23934 20.4006 7.17607 20.1545 6.17279 19.739C4.95964 19.2364 3.85775 18.4993 2.92923 17.5708C2.00071 16.6423 1.26357 15.5404 0.761029 14.3272C0.321302 13.2656 0.0683291 12.137 0.0119485 10.9917L0 10.5C1.58407e-07 7.84784 1.05386 5.30459 2.92923 3.42923C4.6436 1.71485 6.91622 0.688655 9.31985 0.524816C9.39893 0.498139 9.48481 0.492555 9.56802 0.51011C9.71164 0.503903 9.85564 0.5 10 0.5C10.1468 0.5 10.2933 0.503691 10.4393 0.51011ZM7.59743 14.1471C7.97773 15.9349 8.63432 17.6592 9.55331 19.2537L9.73162 19.5515C9.82103 19.5541 9.91043 19.5588 10 19.5588L10.2656 19.5515C11.2774 17.874 12.0001 16.0478 12.4044 14.1471H7.59743ZM1.71048 14.1471C2.16259 15.1747 2.8 16.1107 3.59467 16.9053C4.43582 17.7465 5.43407 18.4142 6.53309 18.8695C7.19283 19.1428 7.88151 19.3338 8.58364 19.4449C7.6643 17.7842 7.00787 15.9974 6.63511 14.1471H1.71048ZM13.3631 14.1471C12.9903 15.9975 12.3348 17.7842 11.4154 19.4449C12.1179 19.3338 12.8069 19.1429 13.4669 18.8695C14.5659 18.4142 15.5642 17.7465 16.4053 16.9053C17.2 16.1107 17.8374 15.1747 18.2895 14.1471H13.3631ZM13.5276 7.79412C13.6598 8.68672 13.7289 9.59079 13.7289 10.5C13.7289 11.4092 13.6598 12.3133 13.5276 13.2059H18.6434C18.9171 12.3314 19.0588 11.4194 19.0588 10.5C19.0588 9.57354 18.9152 8.66225 18.6434 7.79412H13.5276ZM7.42371 7.79412C7.28439 8.68592 7.2114 9.59029 7.2114 10.5C7.2114 11.4097 7.28439 12.3141 7.42371 13.2059H12.5754C12.7147 12.314 12.7877 11.4098 12.7877 10.5C12.7877 9.59025 12.7147 8.68595 12.5754 7.79412H7.42371ZM1.35662 7.79412C1.08482 8.66225 0.941177 9.57354 0.941176 10.5L0.952206 10.9458C0.990046 11.7138 1.12717 12.4729 1.35662 13.2059H6.47243C6.3402 12.3133 6.27022 11.4092 6.27022 10.5C6.27022 9.59083 6.33932 8.68669 6.47151 7.79412H1.35662ZM11.4145 1.55331C12.3344 3.21445 12.9902 5.00184 13.3631 6.85294H18.2895C17.8414 5.83443 17.2074 4.89671 16.4053 4.09467C15.0436 2.73293 13.2929 1.85036 11.4145 1.55331ZM9.73254 1.44761L9.55331 1.74632C8.63432 3.34077 7.97773 5.06505 7.59743 6.85294H12.4044C12 4.95192 11.2776 3.12531 10.2656 1.44761C10.1772 1.44502 10.0887 1.44118 10 1.44118C9.91068 1.44118 9.82156 1.44498 9.73254 1.44761ZM8.58456 1.55331C6.70647 1.8505 4.95619 2.73315 3.59467 4.09467C2.79263 4.89671 2.15857 5.83443 1.71048 6.85294H6.63603C7.00887 5.0019 7.66474 3.2144 8.58456 1.55331Z" fill="white"/>
</svg>
