<svg width="172" height="194" viewBox="0 0 172 194" fill="none" xmlns="http://www.w3.org/2000/svg">
<path fill-rule="evenodd" clip-rule="evenodd" d="M47.1602 27.2188C41.4225 23.29 34.4955 21.4889 27.5741 22.1265C20.6526 22.7641 14.1697 25.8003 9.24373 30.7113L9.0947 30.7704C4.13697 35.6492 1.03417 42.108 0.321369 49.0323C-0.391419 55.9565 1.3307 62.9132 5.19028 68.7023C9.04979 74.4911 14.8049 78.7502 21.4638 80.745C28.1229 82.7398 35.2688 82.3456 41.6686 79.6298C42.2728 79.3786 42.9323 79.2885 43.5813 79.3702L56.345 82.013L56.9427 82.0163C57.3454 82.0288 57.7465 81.9594 58.1218 81.8126C58.4972 81.6656 58.8393 81.4439 59.1269 81.1611C59.4776 80.812 59.7354 80.3806 59.8788 79.9067C60.0221 79.4325 60.0466 78.9296 59.9481 78.4441L57.3892 65.7818C57.2813 65.131 57.3799 64.4619 57.6694 63.8693C60.4512 57.4905 60.9236 50.3396 59.0053 43.6494C57.0869 36.9589 52.8979 31.1476 47.1602 27.2188Z" fill="#FFBCBD"/>
<path fill-rule="evenodd" clip-rule="evenodd" d="M97.4692 19.8622C104.286 13.5779 113.081 9.87281 122.336 9.38664C131.591 8.90047 140.727 11.6632 148.169 17.1985L148.376 17.2478C155.854 22.7345 161.187 30.6616 163.455 39.6612C165.724 48.6608 164.785 58.1701 160.803 66.5489C156.821 74.9273 150.044 81.6509 141.64 85.56C133.237 89.4692 123.732 90.3195 114.767 87.9636C113.922 87.7479 113.034 87.7555 112.193 87.9879L95.859 93.9229L95.071 94.0419C94.542 94.1355 93.9994 94.121 93.4761 93.9992C92.9526 93.8772 92.4587 93.6503 92.0249 93.3323C91.4952 92.9389 91.0723 92.4192 90.7923 91.8214C90.5122 91.2232 90.3834 90.5643 90.4204 89.9048L91.3682 72.7066C91.3857 71.8271 91.1273 70.9633 90.6317 70.2368C85.7379 62.3537 83.7431 53.009 84.9911 43.8136C86.2392 34.6177 90.6519 26.1465 97.4692 19.8622ZM109.758 47.78C108.994 47.5903 108.19 47.6309 107.45 47.8981C106.709 48.1655 106.064 48.6479 105.597 49.2823C105.13 49.9165 104.862 50.6749 104.825 51.4621C104.789 52.2494 104.985 53.0304 105.392 53.7055C105.798 54.3808 106.396 54.9222 107.108 55.2576C107.821 55.593 108.618 55.7089 109.396 55.5915C110.44 55.4339 111.378 54.8668 112.005 54.0164C112.631 53.1658 112.895 52.1004 112.737 51.0551C112.619 50.2754 112.274 49.5477 111.743 48.9647C111.213 48.3818 110.522 47.9698 109.758 47.78ZM125.503 45.4029C124.739 45.2132 123.936 45.2537 123.195 45.521C122.454 45.7883 121.809 46.2708 121.342 46.9052C120.875 47.5394 120.607 48.2978 120.57 49.0849C120.534 49.8722 120.731 50.6533 121.137 51.3284C121.544 52.0036 122.141 52.545 122.853 52.8805C123.566 53.2158 124.363 53.3317 125.141 53.2143C126.185 53.0567 127.123 52.4896 127.75 51.6392C128.376 50.7886 128.64 49.7233 128.482 48.6779C128.364 47.8983 128.019 47.1705 127.488 46.5876C126.958 46.0047 126.267 45.5927 125.503 45.4029ZM141.248 43.0257C140.484 42.836 139.681 42.8766 138.94 43.1438C138.2 43.4112 137.554 43.8936 137.087 44.5281C136.62 45.1622 136.352 45.9206 136.315 46.7078C136.279 47.4951 136.476 48.2761 136.882 48.9513C137.289 49.6265 137.886 50.1679 138.599 50.5033C139.311 50.8387 140.108 50.9546 140.886 50.8372C141.93 50.6796 142.868 50.1125 143.495 49.2621C144.121 48.4115 144.385 47.3462 144.227 46.3008C144.109 45.5211 143.764 44.7934 143.233 44.2104C142.703 43.6275 142.012 43.2155 141.248 43.0257Z" fill="#98E3FF"/>
<path d="M164.459 176.61L159.907 146.685C158.845 139.742 156.265 133.016 151.886 127.518C144.32 118.053 132.678 112.189 119.974 112.189H70.0041C57.3003 112.189 45.6587 118.053 38.0927 127.518C33.6919 133.016 31.1121 139.742 30.0715 146.685L25.5189 176.61C23.1125 184.91 29.3778 193.189 38.071 193.189C46.1573 193.189 53.94 189.998 59.6633 184.306L65.6033 178.399C68.9202 175.1 73.4294 173.246 78.1121 173.246H111.888C116.571 173.246 121.08 175.1 124.397 178.399L130.337 184.306C136.06 189.998 143.821 193.189 151.929 193.189C160.622 193.189 166.887 184.91 164.481 176.61H164.459Z" fill="white"/>
</svg>
