<svg width="20" height="20" viewBox="0 0 20 20" fill="none" xmlns="http://www.w3.org/2000/svg">
<path d="M14 12C15.3261 12 16.5985 12.5262 17.5361 13.4639C18.4738 14.4015 19 15.6739 19 17V19C18.9999 19.5522 18.5522 20 18 20C17.4479 19.9999 17.0001 19.5521 17 19V17C17 16.2044 16.6837 15.4415 16.1211 14.8789C15.5585 14.3163 14.7956 14 14 14H6C5.20444 14.0001 4.44146 14.3164 3.87891 14.8789C3.31645 15.4415 3 16.2045 3 17V19C2.99987 19.5522 2.5522 20 2 20C1.44791 19.9999 1.00013 19.5521 1 19V17C1 15.6739 1.52716 14.4015 2.46484 13.4639C3.40244 12.5264 4.67412 12.0001 6 12H14Z" fill="#111111"/>
<path fill-rule="evenodd" clip-rule="evenodd" d="M10 0C12.7614 0 15 2.23858 15 5C14.9999 7.76131 12.7613 10 10 10C7.23877 9.99987 5.00013 7.76123 5 5C5 2.23866 7.23869 0.000131945 10 0ZM10 2C8.34326 2.00013 7 3.34323 7 5C7.00013 6.65666 8.34334 7.99987 10 8C11.6568 8 12.9999 6.65674 13 5C13 3.34315 11.6569 2 10 2Z" fill="#111111"/>
</svg>
