<svg width="61" height="60" viewBox="0 0 61 60" fill="none" xmlns="http://www.w3.org/2000/svg">
<path d="M15.4989 12.3599C18.589 12.3599 21.1109 14.8804 21.1109 18.0004C21.1105 21.1202 18.5887 23.6388 15.4989 23.6388C12.3494 23.6384 9.83021 21.1199 9.82982 18.0004C9.82982 14.8806 12.3492 12.3603 15.4989 12.3599Z" fill="#FFBCBD"/>
<path fill-rule="evenodd" clip-rule="evenodd" d="M29.4497 0V60H15.8593C7.36936 59.9998 0.500207 53.1306 0.5 44.6407V15.3593C0.500101 11.2856 2.11737 7.37845 4.99791 4.49791C7.87845 1.61737 11.7856 0.000100661 15.8593 0H29.4497ZM15.8593 4.86047C13.0693 4.86057 10.3991 5.99918 8.41914 7.91914C6.49918 9.8991 5.29905 12.5693 5.29895 15.3593V44.6407C5.29906 47.4307 6.49918 50.1009 8.41914 52.0809C10.3991 54.0008 13.0693 55.201 15.8593 55.2011H24.62V4.86047H15.8593Z" fill="#FFBCBD"/>
<path fill-rule="evenodd" clip-rule="evenodd" d="M45.1407 0C53.6306 0.000206594 60.4998 6.86936 60.5 15.3593V44.6407C60.4999 48.7144 58.8826 52.6216 56.0021 55.5021C53.1216 58.3826 49.2144 59.9999 45.1407 60H35.4506V0H45.1407ZM47.3315 27.0007C44.0016 27.0007 41.2409 29.6696 41.2405 32.9993C41.2405 36.3594 44.0014 39.0002 47.3315 39.0002C50.6611 38.9997 53.3609 36.3591 53.3609 32.9993C53.3605 29.67 50.6608 27.0012 47.3315 27.0007Z" fill="#FFBCBD"/>
</svg>
