<svg width="61" height="60" viewBox="0 0 61 60" fill="none" xmlns="http://www.w3.org/2000/svg">
<path d="M30.4989 24.0387C39.4627 30.8098 54.9458 47.8017 50.2542 52.584C44.7889 57.374 37.7661 60.01 30.4989 60C23.6907 60.0084 17.0988 57.6916 11.8026 53.4564L10.7545 52.584C6.05068 47.802 21.5439 30.8101 30.4989 24.0387Z" fill="#BAE4BF"/>
<path d="M50.6695 8.44649C50.9079 8.44443 51.145 8.48327 51.3704 8.56075C51.5054 8.61175 51.5748 8.66622 51.5748 8.66622C54.4058 11.4515 56.6539 14.7737 58.1863 18.4377C59.7185 22.1016 60.5051 26.0352 60.5 30.0066C60.5117 36.8656 58.16 43.5191 53.8423 48.8486C57.3602 42.3499 44.9016 23.9687 38.6528 16.5678C45.7027 9.53563 49.1875 8.44649 50.6695 8.44649Z" fill="#BAE4BF"/>
<path d="M10.3393 8.45308C11.8152 8.45308 15.3045 9.53344 22.3537 16.5678C16.1018 23.963 3.65312 42.3311 7.15107 48.8442C2.99612 43.6931 0.500033 37.1459 0.500033 30.0088C0.494125 26.0379 1.28035 22.1059 2.81153 18.4421C4.3429 14.7781 6.5886 11.4542 9.41861 8.66842C9.43058 8.66543 9.49078 8.61601 9.63394 8.56515L9.63834 8.56954C9.86182 8.48445 10.1003 8.44508 10.3393 8.45308Z" fill="#BAE4BF"/>
<path d="M30.4989 0C36.3337 0 42.0134 1.61294 47.4132 5.20984C47.2435 5.09487 45.8761 4.28018 43.6164 4.36387C37.8655 4.56788 30.4989 8.86398 30.4989 8.86398V8.87717C30.4488 8.84787 23.1184 4.56732 17.3902 4.36387C15.1348 4.283 13.7554 5.09974 13.5868 5.20984C18.9505 1.61613 24.6501 0 30.4637 0H30.4989Z" fill="#BAE4BF"/>
</svg>
