<svg width="19" height="20" viewBox="0 0 19 20" fill="none" xmlns="http://www.w3.org/2000/svg">
<g clip-path="url(#clip0_164_99)">
<path d="M8.90589 9.5347L0.576172 18.3082C0.669714 18.6415 0.837811 18.9488 1.06762 19.2068C1.29742 19.4647 1.58284 19.6664 1.90207 19.7965C2.2213 19.9265 2.56588 19.9815 2.90947 19.9571C3.25306 19.9328 3.58657 19.8298 3.88449 19.656L13.257 14.2896L8.90589 9.5347Z" fill="#EA4335"/>
<path d="M17.329 8.04339L13.276 5.70953L8.71387 9.73427L13.2946 14.277L17.3167 11.9682C17.673 11.7806 17.9714 11.4986 18.1797 11.1527C18.3879 10.8067 18.498 10.4101 18.498 10.0058C18.498 9.60141 18.3879 9.20478 18.1797 8.85884C17.9714 8.51291 17.673 8.23088 17.3167 8.04331L17.329 8.04339Z" fill="#FBBC04"/>
<path d="M0.57649 1.65985C0.526171 1.84698 0.501108 2.04007 0.501975 2.23391V17.7341C0.502472 17.9278 0.527511 18.1208 0.57649 18.3082L9.19175 9.75936L0.57649 1.65985Z" fill="#4285F4"/>
<path d="M8.96796 9.98403L13.2756 5.70962L3.91557 0.318238C3.5634 0.110902 3.16286 0.00109722 2.75475 4.3343e-06C1.74198 -0.00197446 0.851596 0.673785 0.576172 1.65364L8.96796 9.98403Z" fill="#34A853"/>
</g>
<defs>
<clipPath id="clip0_164_99">
<rect width="18" height="20" fill="white" transform="translate(0.5)"/>
</clipPath>
</defs>
</svg>
