<svg width="20" height="15" viewBox="0 0 20 15" fill="none" xmlns="http://www.w3.org/2000/svg">
<path fill-rule="evenodd" clip-rule="evenodd" d="M14.7041 0.504177C15.6222 0.544187 16.5051 0.882055 17.2183 1.46981C17.9787 2.09663 18.4998 2.9689 18.6927 3.93817L19.9917 10.467L20 10.5506V11.7985L19.9925 11.9982C19.9583 12.462 19.8054 12.9102 19.547 13.2988C19.2518 13.7428 18.832 14.0893 18.3411 14.2936C17.8502 14.4979 17.3097 14.5515 16.7886 14.4473C16.3326 14.3561 15.909 14.1478 15.5585 13.8442L15.4131 13.7081L12.6961 10.9782H7.30386L4.58694 13.7089C4.21122 14.0864 3.73251 14.3439 3.21144 14.4482C2.69031 14.5523 2.14981 14.4988 1.65891 14.2945C1.16797 14.0901 0.748218 13.7436 0.452959 13.2996C0.19463 12.911 0.0417043 12.4628 0.00748005 11.999L0 11.7994V10.5506C0 10.5225 0.00285798 10.4945 0.00831117 10.467L1.30735 3.93817L1.34724 3.75774C1.56614 2.8609 2.06878 2.05749 2.78175 1.46981C3.54237 0.842951 4.49592 0.500171 5.47955 0.5H14.5204L14.7041 0.504177ZM5.47955 1.35537C4.69271 1.35554 3.93043 1.62993 3.32197 2.13138C2.78943 2.57026 2.40386 3.15942 2.21243 3.81956L2.14179 4.10607L0.851064 10.5923V11.7994L0.856051 11.9355C0.879396 12.2524 0.983774 12.5588 1.16024 12.8243C1.36198 13.1277 1.64927 13.3646 1.98471 13.5042C2.32008 13.6438 2.68921 13.6798 3.04521 13.6087C3.40125 13.5375 3.72848 13.3621 3.98521 13.1041L6.8268 10.2482L6.89162 10.1947C6.96101 10.1482 7.04303 10.1229 7.12766 10.1229H12.8723C12.9852 10.1229 13.0934 10.168 13.1732 10.2482L16.0148 13.1033L16.1145 13.196C16.354 13.4034 16.6433 13.5455 16.9548 13.6078C17.3108 13.679 17.6799 13.6429 18.0153 13.5034C18.3507 13.3638 18.638 13.1269 18.8398 12.8235C19.0162 12.558 19.1206 12.2516 19.1439 11.9347L19.1489 11.7985V10.5923L17.8582 4.10607C17.7039 3.33048 17.2866 2.63289 16.678 2.13138C16.1455 1.69254 15.4953 1.42728 14.8138 1.3679L14.5204 1.35537H13.135L12.2955 3.04355C12.2235 3.18844 12.0761 3.27994 11.9149 3.27994H8.08511C7.92393 3.27994 7.77654 3.18844 7.70445 3.04355L6.86503 1.35537H5.47955Z" fill="white"/>
</svg>
