<svg width="65" height="38" viewBox="0 0 65 38" fill="none" xmlns="http://www.w3.org/2000/svg">
<g clip-path="url(#clip0_157_378)">
<path d="M64.3298 30.095L62.2298 16.215C61.7398 12.995 60.5498 9.875 58.5298 7.325C55.0398 2.935 49.6698 0.214996 43.8098 0.214996H20.7598C14.8998 0.214996 9.52984 2.935 6.03984 7.325C4.00984 9.875 2.81984 12.995 2.33984 16.215L0.239842 30.095C-0.870158 33.945 2.01984 37.785 6.02984 37.785C9.75984 37.785 13.3498 36.305 15.9898 33.665L18.7298 30.925C20.2598 29.395 22.3398 28.535 24.4998 28.535H40.0798C42.2398 28.535 44.3198 29.395 45.8498 30.925L48.5898 33.665C51.2298 36.305 54.8098 37.785 58.5498 37.785C62.5598 37.785 65.4498 33.945 64.3398 30.095H64.3298Z" fill="#7500E7"/>
<path d="M25.0402 22.495H24.0602C22.8502 22.495 21.7102 21.995 20.9502 21.125C20.1602 21.405 19.3002 21.555 18.3602 21.555C17.0302 21.555 15.8402 21.275 14.7902 20.715C13.7402 20.155 12.9102 19.345 12.3102 18.285C11.7102 17.225 11.4102 15.975 11.4102 14.535C11.4102 13.095 11.7102 11.835 12.3102 10.775C12.9102 9.71501 13.7402 8.905 14.7902 8.34501C15.8402 7.78501 17.0302 7.505 18.3602 7.505C19.6902 7.505 20.8602 7.78501 21.9102 8.34501C22.9602 8.905 23.7902 9.71501 24.3902 10.775C24.9902 11.835 25.2902 13.095 25.2902 14.535C25.2902 15.725 25.0802 16.785 24.6702 17.725C24.2602 18.655 23.6802 19.435 22.9302 20.045C22.9302 20.045 23.2202 21.955 25.0402 22.515V22.495Z" fill="white"/>
<path d="M28.4502 9.65503H33.4902C34.4502 9.65503 35.2702 9.83503 35.9702 10.205C36.6602 10.565 37.1902 11.075 37.5502 11.735C37.9102 12.395 38.0902 13.145 38.0902 13.995C38.0902 14.845 37.9002 15.605 37.5402 16.265C37.1702 16.915 36.6302 17.425 35.9302 17.785C35.2302 18.145 34.3902 18.325 33.4202 18.325H31.1102V22.515H28.4502V9.66503V9.65503ZM32.9902 16.165C33.7602 16.165 34.3402 15.965 34.7402 15.575C35.1402 15.185 35.3302 14.655 35.3302 13.985C35.3302 13.315 35.1302 12.795 34.7402 12.415C34.3502 12.035 33.7602 11.835 32.9902 11.835H31.1102V16.165H32.9902Z" fill="white"/>
<path d="M42.34 22.495H39.71V9.64502H42.34V22.495Z" fill="white"/>
<path d="M46.2202 21.895C45.5102 21.495 44.9602 20.915 44.5702 20.165C44.1802 19.415 43.9902 18.535 43.9902 17.525C43.9902 16.515 44.1802 15.665 44.5602 14.915C44.9402 14.165 45.4802 13.575 46.1902 13.165C46.9002 12.755 47.7102 12.545 48.6402 12.545C49.5002 12.545 50.2802 12.725 50.9602 13.095C51.6402 13.455 52.1802 14.005 52.5702 14.745C52.9602 15.475 53.1602 16.375 53.1602 17.435V18.185H46.5802C46.5802 18.665 46.6702 19.085 46.8502 19.435C47.0302 19.785 47.2902 20.065 47.6202 20.255C47.9502 20.445 48.3502 20.545 48.8002 20.545C49.2502 20.545 49.6002 20.455 49.9202 20.285C50.2302 20.115 50.4602 19.875 50.5902 19.575H53.0902C52.9702 20.165 52.7102 20.685 52.3302 21.125C51.9502 21.565 51.4502 21.915 50.8402 22.155C50.2302 22.395 49.5302 22.515 48.7502 22.515C47.7702 22.515 46.9302 22.315 46.2202 21.915V21.895ZM50.6902 16.515C50.6902 16.135 50.6102 15.785 50.4402 15.485C50.2702 15.185 50.0402 14.945 49.7302 14.775C49.4202 14.605 49.0902 14.515 48.7002 14.515C48.3102 14.515 47.9602 14.605 47.6402 14.785C47.3202 14.965 47.0702 15.205 46.8902 15.515C46.7002 15.825 46.6002 16.155 46.5902 16.525H50.6902V16.515Z" fill="white"/>
</g>
<defs>
<clipPath id="clip0_157_378">
<rect width="64.57" height="37.57" fill="white" transform="translate(0 0.214996)"/>
</clipPath>
</defs>
</svg>
