<svg width="1125" height="736" viewBox="0 0 1125 736" fill="none" xmlns="http://www.w3.org/2000/svg">
<rect width="1125" height="736" rx="100" fill="white"/>
<mask id="mask0_259_561" style="mask-type:luminance" maskUnits="userSpaceOnUse" x="507" y="115" width="111" height="110">
<path d="M562.5 220C569.067 220.008 575.571 218.718 581.639 216.205C587.706 213.692 593.217 210.005 597.855 205.355C602.505 200.717 606.192 195.206 608.705 189.139C611.218 183.071 612.508 176.567 612.5 170C612.508 163.433 611.218 156.929 608.705 150.861C606.192 144.794 602.505 139.283 597.855 134.645C593.217 129.995 587.706 126.308 581.639 123.795C575.571 121.282 569.067 119.992 562.5 120C555.933 119.992 549.429 121.282 543.361 123.795C537.294 126.308 531.783 129.995 527.145 134.645C522.495 139.283 518.808 144.794 516.295 150.861C513.782 156.929 512.492 163.433 512.5 170C512.492 176.567 513.782 183.071 516.295 189.139C518.808 195.206 522.495 200.717 527.145 205.355C531.783 210.005 537.294 213.692 543.361 216.205C549.429 218.718 555.933 220.008 562.5 220Z" fill="white" stroke="white" stroke-width="10" stroke-linejoin="round"/>
<path d="M542.5 170L557.5 185L587.5 155" stroke="black" stroke-width="10" stroke-linecap="round" stroke-linejoin="round"/>
</mask>
<g mask="url(#mask0_259_561)">
<path d="M502.498 110.001H622.498V230.001H502.498V110.001Z" fill="#971CEF"/>
</g>
<path d="M433.084 324V287.234H438.518V308.055H438.975L449.893 296.426H456.393L445.246 308.258L457.154 324H450.502L441.133 311.609L438.518 314.199V324H433.084ZM460.658 324V296.426H466.092V324H460.658ZM459.947 288.961C459.973 287.184 461.521 285.762 463.4 285.762C465.254 285.762 466.803 287.184 466.803 288.961C466.803 290.738 465.254 292.186 463.4 292.16C461.521 292.186 459.973 290.738 459.947 288.961ZM472.693 324V296.426H477.924V300.945H478.229C479.396 297.873 482.113 296.07 485.744 296.07C489.426 296.07 491.99 297.873 493.158 300.945H493.463C494.758 297.975 497.754 296.07 501.74 296.07C506.717 296.07 510.246 299.193 510.271 305.516V324H504.838V306.023C504.838 302.291 502.502 300.742 499.658 300.742C496.18 300.742 494.174 303.129 494.174 306.43V324H488.791V305.719C488.791 302.697 486.734 300.742 483.764 300.742C480.717 300.742 478.127 303.281 478.127 306.988V324H472.693ZM527.131 324.559C520.479 324.533 515.604 319.176 515.604 310.289C515.604 301.301 520.555 296.07 527.182 296.07C532.311 296.07 534.164 299.168 535.154 300.895H535.408V287.234H540.842V324H535.561V319.684H535.154C534.139 321.486 532.158 324.533 527.131 324.559ZM521.139 310.188C521.113 315.723 523.602 319.912 528.35 319.938C532.971 319.912 535.561 315.977 535.561 310.188C535.561 304.449 533.021 300.666 528.35 300.691C523.551 300.666 521.113 304.754 521.139 310.188ZM559.58 324.559C551.76 324.559 546.656 318.871 546.682 310.34C546.656 301.758 551.76 296.07 559.58 296.07C567.35 296.07 572.428 301.758 572.428 310.34C572.428 318.871 567.35 324.559 559.58 324.559ZM552.115 310.34C552.115 315.596 554.527 320.039 559.58 320.039C564.557 320.039 566.943 315.596 566.943 310.34C566.943 305.059 564.557 300.564 559.58 300.539C554.527 300.564 552.115 305.059 552.115 310.34ZM590.658 296.426V300.742H585.021V315.875C585.047 318.998 586.57 319.557 588.322 319.582C589.109 319.582 590.303 319.506 591.064 319.43V324.152C590.328 324.254 589.16 324.355 587.662 324.355C583.422 324.355 579.588 322.02 579.639 316.992V300.742H575.576V296.426H579.639V289.824H585.021V296.426H590.658ZM644.689 282.816V308.512H639.916V282.816H644.689ZM609.803 305.465V285.457H614.627V301.402C621.965 301.352 628.389 300.844 635.244 299.371L635.904 303.383C628.389 304.906 621.533 305.439 613.561 305.465H609.803ZM614.881 327.707V310.594H644.689V327.707H614.881ZM619.604 323.848H639.967V314.402H619.604V323.848ZM677.291 287.691V290.484C677.266 294.318 677.266 300.184 675.971 308.309L671.197 307.953C672.365 300.691 672.492 295.385 672.518 291.602H654.033V287.691H677.291ZM651.494 314.605C654.338 314.58 657.512 314.555 660.838 314.479V300.691H665.611V314.326C670.436 314.123 675.387 313.818 679.932 313.234L680.186 316.84C670.715 318.363 660.127 318.566 652.053 318.516L651.494 314.605ZM682.521 328.316V282.816H687.396V301.605H694.354V305.719H687.396V328.316H682.521ZM323.93 358.727C330.684 358.777 337.768 362.84 337.793 376.297C337.793 389.195 332.232 396.508 323.422 396.508C316.643 396.508 311.92 392.318 311.031 386.352H316.566C317.328 389.449 319.715 391.607 323.422 391.633C329.084 391.607 332.41 386.682 332.461 378.277H332.004C330.023 381.375 326.57 383.254 322.609 383.254C316.008 383.254 310.727 378.201 310.727 371.168C310.727 364.16 315.932 358.676 323.93 358.727ZM316.16 371.066C316.186 375.332 319.359 378.709 323.828 378.684C328.271 378.709 331.699 375.078 331.699 371.016C331.699 367.029 328.424 363.398 323.93 363.398C319.486 363.398 316.135 366.852 316.16 371.066ZM347.289 396.355C345.309 396.33 343.658 394.73 343.684 392.75C343.658 390.77 345.309 389.145 347.289 389.145C349.244 389.145 350.869 390.77 350.895 392.75C350.869 394.73 349.244 396.33 347.289 396.355ZM343.684 372.691C343.658 370.711 345.309 369.086 347.289 369.086C349.244 369.086 350.869 370.711 350.895 372.691C350.869 374.672 349.244 376.271 347.289 376.297C345.309 376.271 343.658 374.672 343.684 372.691ZM370.191 396.508C361.686 396.508 356.684 389.652 356.684 377.617C356.684 365.658 361.736 358.727 370.191 358.727C378.621 358.727 383.674 365.658 383.699 377.617C383.674 389.652 378.697 396.508 370.191 396.508ZM362.27 377.617C362.244 386.783 365.215 391.684 370.191 391.684C375.143 391.684 378.113 386.783 378.113 377.617C378.113 368.477 375.117 363.475 370.191 363.449C365.24 363.475 362.27 368.477 362.27 377.617ZM402.285 396.508C393.779 396.508 388.777 389.652 388.777 377.617C388.777 365.658 393.83 358.727 402.285 358.727C410.715 358.727 415.768 365.658 415.793 377.617C415.768 389.652 410.791 396.508 402.285 396.508ZM394.363 377.617C394.338 386.783 397.309 391.684 402.285 391.684C407.236 391.684 410.207 386.783 410.207 377.617C410.207 368.477 407.211 363.475 402.285 363.449C397.334 363.475 394.363 368.477 394.363 377.617ZM436.715 366.395C436.664 374.697 441.691 383.076 448.75 386.199L445.855 390.008C440.625 387.52 436.486 382.416 434.354 376.195C432.246 382.873 428.057 388.357 422.598 391.023L419.652 386.961C426.812 383.787 431.84 375.078 431.84 366.395V358.625H436.715V366.395ZM452.863 400.418V354.816H457.688V400.418H452.863ZM504.102 354.816V400.316H499.48V354.816H504.102ZM465.457 374.469C465.457 364.617 469.316 358.447 475.258 358.473C480.793 358.447 484.525 363.703 485.084 372.234H490.238V355.68H494.859V398.082H490.238V376.145H485.109C484.678 385.031 480.895 390.541 475.258 390.516C469.316 390.541 465.457 384.346 465.457 374.469ZM469.926 374.469C469.926 381.705 471.982 385.971 475.258 385.945C478.609 385.971 480.691 381.705 480.691 374.469C480.691 367.207 478.609 362.967 475.258 362.992C471.982 362.967 469.926 367.207 469.926 374.469ZM548.637 359.488V363.449H543.965V384.65C546.225 384.473 548.434 384.27 550.566 384.016L550.82 387.52C541.299 389.119 530.559 389.271 522.586 389.297L522.027 385.285C523.83 385.285 525.785 385.26 527.816 385.234V363.449H523.145V359.488H548.637ZM532.488 385.158C534.723 385.107 537.008 385.031 539.293 384.93V363.449H532.488V385.158ZM553.207 400.316V354.816H558.031V372.742H565.344V376.703H558.031V400.316H553.207ZM592.816 358.828V362.789H575.094V371.574H591.09V375.434H575.094V385.641C583.041 385.59 588.805 385.311 595.559 384.219L596.066 388.129C588.855 389.297 582.609 389.525 574.027 389.551H570.32V358.828H592.816ZM600.484 400.316V354.816H605.359V400.316H600.484ZM647.914 354.816V372.945H654.973V376.957H647.914V400.266H643.09V354.816H647.914ZM612.52 388.129C623.92 382.441 630.115 374.215 631.105 363.602H614.805V359.59H636.031C635.98 372.742 630.191 384.498 615.211 391.887L612.52 388.129ZM685.898 384.879C685.898 388.789 687.828 392.928 691.967 395.391C696.131 392.725 698.188 388.383 698.188 384.879V382.695H702.91V384.879C702.885 389.602 706.008 394.172 711.949 396.102L709.562 399.656C705.068 398.107 701.996 395.061 700.422 391.354C698.975 395.01 696.258 398.336 692.094 400.062C687.727 398.412 684.959 395.188 683.562 391.48C681.912 395.061 678.916 398.082 674.625 399.656L672.188 396.102C678.027 394.02 681.201 389.271 681.227 384.879V382.695H685.898V384.879ZM671.02 368.121C671.045 361.748 676.174 357.381 683.156 357.355C690.113 357.381 695.242 361.748 695.242 368.121C695.242 374.418 690.113 378.785 683.156 378.785C676.174 378.785 671.045 374.418 671.02 368.121ZM675.742 368.121C675.717 372.082 678.84 374.773 683.156 374.773C687.422 374.773 690.52 372.082 690.52 368.121C690.52 364.135 687.422 361.443 683.156 361.469C678.84 361.443 675.717 364.135 675.742 368.121ZM703.012 380.766V354.867H707.836V380.766H703.012ZM727.387 358.219C733.582 358.244 738.076 363.475 738.812 371.879H748.207V354.816H752.98V400.418H748.207V375.789H738.863C738.33 384.676 733.734 390.186 727.387 390.16C720.607 390.186 715.809 383.99 715.859 374.164C715.809 364.439 720.607 358.244 727.387 358.219ZM720.43 374.164C720.455 381.4 723.273 385.844 727.387 385.844C731.5 385.844 734.318 381.4 734.344 374.164C734.318 367.029 731.5 362.561 727.387 362.535C723.273 362.561 720.455 367.029 720.43 374.164ZM801.629 390.617V394.629H759.988V390.617H769.941V378.734C766.209 376.678 763.924 373.428 763.949 369.34C763.924 362.18 770.957 357.482 780.707 357.457C790.482 357.482 797.516 362.18 797.516 369.34C797.516 373.352 795.332 376.576 791.676 378.633V390.617H801.629ZM768.621 369.34C768.621 374.215 773.572 377.389 780.707 377.414C787.791 377.389 792.818 374.215 792.844 369.34C792.818 364.439 787.791 361.316 780.707 361.316C773.572 361.316 768.621 364.439 768.621 369.34ZM774.715 390.617H786.801V380.512C784.947 380.943 782.891 381.172 780.707 381.172C778.574 381.172 776.543 380.943 774.715 380.512V390.617ZM810.109 396.355C808.129 396.33 806.479 394.73 806.504 392.75C806.479 390.77 808.129 389.145 810.109 389.145C812.064 389.145 813.689 390.77 813.715 392.75C813.689 394.73 812.064 396.33 810.109 396.355Z" fill="#111111"/>
<rect x="237.5" y="534" width="310" height="142" rx="50" fill="#666666"/>
<path d="M376.656 586.438V590.855H367.16C367.262 594.842 370.893 598.371 377.672 599.691L375.438 604.059C370.182 602.967 366.475 600.504 364.443 597.203C362.438 600.809 358.629 603.525 353.246 604.668L350.859 600.301C357.74 598.93 361.396 595.07 361.473 590.855H352.027V586.438H361.523V581.715H367.16V586.438H376.656ZM349.133 607.055C357.689 607.08 369.09 607.004 378.891 605.785L379.297 609.848C375.336 610.533 371.223 610.965 367.211 611.244V626.098H361.523V611.549C357.334 611.701 353.348 611.727 349.844 611.727L349.133 607.055ZM381.887 627.469V581.664H387.473V627.469H381.887ZM435.969 617.262V621.832H394.023V617.262H412V606.648H417.586V617.262H435.969ZM395.242 603.094C404.84 601.545 411.721 594.664 411.746 587.758V584.406H417.738V587.758C417.738 594.689 424.67 601.545 434.344 603.094L431.906 607.766C424.162 606.293 417.789 601.85 414.742 595.832C411.721 601.824 405.424 606.318 397.68 607.766L395.242 603.094Z" fill="white"/>
<rect x="577.5" y="534" width="310" height="142" rx="50" fill="#971CEF"/>
<path d="M725.441 581.664V595.02H731.637V599.691H725.441V612.691H719.805V581.664H725.441ZM688.676 607.207C692.129 607.207 696.115 607.182 700.254 607.08V604.262C695.15 603.627 691.9 601.164 691.926 597.559C691.9 593.318 696.344 590.729 702.996 590.754C709.674 590.729 714.066 593.318 714.066 597.559C714.066 601.139 710.918 603.576 705.891 604.236V606.877C709.801 606.674 713.736 606.369 717.418 605.887L717.875 609.797C708.1 611.523 697.359 611.625 689.285 611.625L688.676 607.207ZM689.844 589.434V585.27H700.254V581.258H705.891V585.27H716.199V589.434H689.844ZM694.465 619.09V614.672H725.441V627.52H719.805V619.09H694.465ZM697.359 597.559C697.309 599.463 699.441 600.656 702.996 600.605C706.551 600.656 708.684 599.463 708.684 597.559C708.684 595.553 706.551 594.537 702.996 594.562C699.441 594.537 697.309 595.553 697.359 597.559ZM772.262 581.664V614.824H766.574V581.664H772.262ZM734.836 596.137C734.836 589.459 740.244 584.686 747.227 584.66C754.209 584.686 759.592 589.459 759.566 596.137C759.592 602.916 754.209 607.664 747.227 607.664C740.244 607.664 734.836 602.916 734.836 596.137ZM740.371 596.137C740.346 600.199 743.291 602.738 747.227 602.738C751.061 602.738 754.031 600.199 754.031 596.137C754.031 592.176 751.061 589.586 747.227 589.586C743.291 589.586 740.346 592.176 740.371 596.137ZM741.895 626.605V611.473H747.582V622.035H773.531V626.605H741.895Z" fill="white"/>
</svg>
