<svg width="1125" height="2196" viewBox="0 0 1125 2196" fill="none" xmlns="http://www.w3.org/2000/svg">
<rect width="1125" height="2196" rx="100" fill="white"/>
<g clip-path="url(#clip0_302_313)">
<path d="M82.5 231.5L105 254M82.5 231.5L60 209M82.5 231.5L60 254M82.5 231.5L105 209" stroke="black" stroke-width="4" stroke-linecap="round" stroke-linejoin="round"/>
</g>
<path d="M438.609 207.867V241.484H433.785V224.32H423.832V233.918H402.859V210.863H407.684V218.582H419.059V210.863H423.832V220.41H433.785V207.867H438.609ZM407.684 230.008H419.059V222.289H407.684V230.008ZM408.902 252.352V238.184H413.777V248.441H439.625V252.352H408.902ZM484.566 207.816V253.316H479.945V229.703H474.309V251.133H469.789V209.035H474.309V225.793H479.945V207.816H484.566ZM445.465 240.316C455.57 234.578 459.811 226.834 460.572 217.566H447.395V213.605H465.27C465.244 225.564 461.283 236.33 448.258 243.668L445.465 240.316ZM516.609 212.488V216.449H511.938V237.65C514.197 237.473 516.406 237.27 518.539 237.016L518.793 240.52C509.271 242.119 498.531 242.271 490.559 242.297L490 238.285C491.803 238.285 493.758 238.26 495.789 238.234V216.449H491.117V212.488H516.609ZM500.461 238.158C502.695 238.107 504.98 238.031 507.266 237.93V216.449H500.461V238.158ZM521.18 253.316V207.816H526.004V225.742H533.316V229.703H526.004V253.316H521.18ZM560.789 211.828V215.789H543.066V224.574H559.062V228.434H543.066V238.641C551.014 238.59 556.777 238.311 563.531 237.219L564.039 241.129C556.828 242.297 550.582 242.525 542 242.551H538.293V211.828H560.789ZM568.457 253.316V207.816H573.332V253.316H568.457ZM607.051 216.551C607.051 221.527 610.225 226.555 616.141 228.789L613.602 232.496C609.361 230.871 606.391 227.773 604.766 224.041C603.09 228.256 599.992 231.912 595.574 233.816L592.934 230.059C599.078 227.393 602.379 221.604 602.379 216.551V210.66H607.051V216.551ZM601.312 244.988C601.262 239.809 607.178 236.736 616.699 236.711C626.195 236.736 632.162 239.809 632.188 244.988C632.162 250.168 626.195 253.24 616.699 253.215C607.178 253.24 601.262 250.168 601.312 244.988ZM606.086 244.988C606.035 247.883 610.072 249.559 616.699 249.508C623.301 249.559 627.338 247.883 627.363 244.988C627.338 242.068 623.301 240.393 616.699 240.418C610.072 240.393 606.035 242.068 606.086 244.988ZM617.562 234.426V208.68H622.031V219.699H627.363V207.867H631.934V235.848H627.363V223.66H622.031V234.426H617.562ZM654.227 214.621C654.201 220.994 658.34 226.682 665.246 228.941L662.605 232.699C657.604 230.871 653.922 227.367 651.941 222.797C649.986 228.002 646.025 232.09 640.516 234.07L637.926 230.211C645.188 227.723 649.402 221.654 649.453 214.824V210.355H654.227V214.621ZM645.391 244.633C645.365 239.123 651.205 235.924 660.777 235.949C670.299 235.924 676.139 239.123 676.164 244.633C676.139 250.117 670.299 253.24 660.777 253.215C651.205 253.24 645.365 250.117 645.391 244.633ZM650.164 244.633C650.139 247.654 654.1 249.432 660.777 249.406C667.404 249.432 671.365 247.654 671.391 244.633C671.365 241.51 667.404 239.707 660.777 239.707C654.1 239.707 650.139 241.51 650.164 244.633ZM661.59 221.02V217.059H671.188V207.816H676.012V234.68H671.188V221.02H661.59ZM718.465 207.816V226.25H725.777V230.262H718.465V253.316H713.691V207.816H718.465ZM682.766 218.887V214.926H693.988V208.426H698.812V214.926H709.73V218.887H682.766ZM685.102 232.801C685.102 226.605 689.875 222.238 696.426 222.238C702.951 222.238 707.725 226.605 707.75 232.801C707.725 239.047 702.951 243.389 696.426 243.414C689.875 243.389 685.102 239.047 685.102 232.801ZM689.723 232.801C689.697 236.762 692.541 239.402 696.426 239.352C700.285 239.402 703.104 236.762 703.129 232.801C703.104 228.916 700.285 226.225 696.426 226.199C692.541 226.225 689.697 228.916 689.723 232.801ZM765.793 207.816V253.316H760.918V207.816H765.793ZM728.418 241.129C740.504 235.365 746.42 227.164 747.359 216.551H730.602V212.691H752.234C752.234 226.021 746.572 237.549 730.957 245.039L728.418 241.129Z" fill="#111111"/>
<path d="M60 412C60 395.431 73.4315 382 90 382H1035C1051.57 382 1065 395.431 1065 412V582H60V412Z" fill="white"/>
<rect x="61" y="383" width="198" height="198" rx="9" stroke="#DEDEDE" stroke-width="2"/>
<path fill-rule="evenodd" clip-rule="evenodd" d="M166 458C168.457 458 171.505 459.264 173.242 461.001L176.241 464.001H181C185.962 464.001 190 468.039 190 473V497C190 501.962 185.962 506 181 506H139C134.038 506 130 501.962 130 497V473C130 468.038 134.038 464.001 139 464.001H143.757L146.758 461.001C148.495 459.264 151.543 458 154 458H166ZM160.003 472.998C157.218 472.998 154.546 474.103 152.577 476.072C150.607 478.041 149.501 480.711 149.5 483.496C149.5 486.281 150.605 488.953 152.574 490.923C154.543 492.892 157.214 493.998 159.999 493.999C162.784 493.999 165.456 492.894 167.426 490.925C169.395 488.956 170.501 486.286 170.502 483.501C170.502 480.716 169.397 478.044 167.428 476.074C165.459 474.105 162.788 472.999 160.003 472.998ZM177.999 472.097C177.487 472.097 176.98 472.198 176.507 472.394C176.034 472.59 175.603 472.878 175.241 473.24C174.879 473.602 174.593 474.032 174.397 474.505C174.201 474.978 174.099 475.485 174.099 475.997C174.099 476.509 174.201 477.016 174.397 477.489C174.593 477.962 174.879 478.393 175.241 478.755C175.603 479.117 176.034 479.405 176.507 479.601C176.98 479.797 177.487 479.897 177.999 479.897C179.033 479.897 180.025 479.486 180.756 478.755C181.488 478.023 181.899 477.032 181.899 475.997C181.899 474.963 181.488 473.971 180.756 473.24C180.025 472.509 179.033 472.097 177.999 472.097Z" fill="#888888"/>
<path d="M60 612C60 595.431 73.4315 582 90 582H1035C1051.57 582 1065 595.431 1065 612V802H60V612Z" fill="white"/>
<path d="M83.3203 619.328V645.373H81.123V619.328H83.3203ZM60.7324 638.43C64.3652 636.262 66.4893 631.501 66.4746 626.77V624.309H61.4648V622.404H73.4766V624.309H68.7012V626.77C68.7012 631.267 70.7373 635.764 74.3262 637.844L72.9199 639.543C70.3564 638.005 68.54 635.192 67.6318 631.882C66.6943 635.471 64.8047 638.532 62.1973 640.158L60.7324 638.43ZM71.4844 630.607V628.732H75.8789V619.973H78.0469V644.025H75.8789V630.607H71.4844ZM107.695 620.441V629.23H99.9902V632.57H110.713V634.445H86.9824V632.57H97.7051V629.23H90.0586V620.441H107.695ZM89.6191 639.016V637.17H107.783V645.373H105.469V639.016H89.6191ZM92.3145 627.385H105.41V622.287H92.3145V627.385Z" fill="#111111"/>
<rect x="60.5" y="672.5" width="1004" height="99" rx="9.5" fill="white"/>
<rect x="60.5" y="672.5" width="1004" height="99" rx="9.5" stroke="#DEDEDE"/>
<path d="M109.627 710.51V727.217H107.621V718.533H102.289V723.357H92.0566V712.008H94.0371V716.02H100.334V712.008H102.289V716.857H107.621V710.51H109.627ZM94.0371 721.707H100.334V717.594H94.0371V721.707ZM95.0273 732.574V725.566H97.0332V730.898H110.135V732.574H95.0273ZM132.656 710.484V733.057H130.701V721.25H127.578V731.939H125.674V711.094H127.578V719.6H130.701V710.484H132.656ZM113.41 726.811C118.653 723.878 120.812 719.752 121.154 715.08H114.273V713.43H123.109C123.084 719.168 121.065 724.589 114.578 728.207L113.41 726.811ZM148.83 712.947V714.598H146.316V725.465C147.535 725.389 148.741 725.274 149.896 725.135L149.998 726.607C145.225 727.369 139.829 727.445 135.83 727.471L135.576 725.77C136.528 725.77 137.544 725.757 138.623 725.744V714.598H136.135V712.947H148.83ZM140.553 725.719C141.81 725.693 143.117 725.643 144.412 725.579V714.598H140.553V725.719ZM151.344 733.057V710.484H153.324V719.549H157.107V721.225H153.324V733.057H151.344ZM170.768 712.541V714.217H161.754V718.889H169.955V720.514H161.754V725.973C165.969 725.973 168.863 725.82 172.316 725.236L172.52 726.887C168.952 727.483 165.918 727.61 161.576 727.623H159.773V712.541H170.768ZM174.982 733.057V710.484H176.988V733.057H174.982ZM206.619 710.484V733.057H204.715V710.484H206.619ZM187.043 727.039C190.191 725.16 192.032 721.034 192.02 716.934V714.801H187.678V713.15H198.088V714.801H193.949V716.934C193.949 720.831 195.714 724.729 198.824 726.531L197.605 728.004C195.384 726.671 193.81 724.233 193.022 721.364C192.21 724.475 190.572 727.128 188.312 728.537L187.043 727.039ZM196.361 720.26V718.635H200.17V711.043H202.049V731.889H200.17V720.26H196.361ZM227.744 711.449V719.066H221.066V721.961H230.359V723.586H209.793V721.961H219.086V719.066H212.459V711.449H227.744ZM212.078 727.547V725.947H227.82V733.057H225.814V727.547H212.078ZM214.414 717.467H225.764V713.049H214.414V717.467Z" fill="#888888"/>
<path d="M60 832C60 815.431 73.4315 802 90 802H1035C1051.57 802 1065 815.431 1065 832V1068H60V832Z" fill="white"/>
<path d="M82.6465 839.357V858.635H80.332V848.615H74.1797V854.182H62.373V841.086H64.6582V845.715H71.9238V841.086H74.1797V846.682H80.332V839.357H82.6465ZM64.6582 852.277H71.9238V847.531H64.6582V852.277ZM65.8008 864.816V856.73H68.1152V862.883H83.2324V864.816H65.8008ZM109.219 839.328V865.373H106.963V851.75H103.359V864.084H101.162V840.031H103.359V849.846H106.963V839.328H109.219ZM87.0117 858.166C93.0615 854.782 95.5518 850.021 95.9473 844.631H88.0078V842.727H98.2031C98.1738 849.348 95.8447 855.603 88.3594 859.777L87.0117 858.166ZM133.799 841.701V843.635H123.896V849.025H133.213V850.9H123.896V857.199C128.599 857.199 131.895 857.023 135.791 856.35L136.055 858.254C131.982 858.942 128.569 859.089 123.633 859.104H121.582V841.701H133.799ZM138.311 865.373V839.328H140.596V849.816H144.961V851.779H140.596V865.373H138.311ZM167.842 839.328V865.432H165.527V839.328H167.842ZM147.334 850.432C147.349 844.895 150.103 841.364 153.984 841.35C157.852 841.364 160.649 844.895 160.635 850.432C160.649 855.983 157.852 859.499 153.984 859.484C150.103 859.499 147.349 855.983 147.334 850.432ZM149.561 850.432C149.561 854.665 151.377 857.448 153.984 857.434C156.606 857.448 158.408 854.665 158.408 850.432C158.408 846.198 156.606 843.415 153.984 843.4C151.377 843.415 149.561 846.198 149.561 850.432ZM185.215 841.936V848.879H191.602V839.328H193.887V865.432H191.602V850.783H185.215V858.781H173.35V841.936H185.215ZM175.635 856.936H182.988V843.752H175.635V856.936Z" fill="#111111"/>
<path d="M76.6074 888.641V898.523H74.9102V893.561H70.6562V892.164H74.9102V888.641H76.6074ZM60.752 897.213C63.6309 896.257 65.6074 893.861 65.6289 891.068V889.264H67.2832V891.068C67.2617 893.571 69.2383 895.87 72.0312 896.783L71.1289 898.094C69.0127 897.342 67.3262 895.838 66.4775 893.904C65.6611 896.085 63.9316 897.75 61.6758 898.566L60.752 897.213ZM64.2324 900.844V899.49H76.6074V904.045H65.9297V906.129H77.3164V907.482H64.2754V902.756H74.9316V900.844H64.2324ZM95.6211 888.641V900.027H93.9238V895.021H90.0781V893.625H93.9238V888.641H95.6211ZM79.873 898.502C82.709 897.481 84.7285 894.893 84.7285 892.164V891.455H80.4102V890.037H90.7012V891.455H86.4258V892.143C86.4258 894.635 88.3379 897.009 91.1309 897.965L90.25 899.318C88.1123 898.545 86.4473 896.934 85.6201 894.968C84.8037 897.202 83.0312 898.985 80.7539 899.855L79.873 898.502ZM82.8809 904.174C82.8701 901.929 85.3086 900.618 89.2832 900.629C93.2471 900.618 95.6855 901.929 95.6855 904.174C95.6855 906.43 93.2471 907.719 89.2832 907.74C85.3086 907.719 82.8701 906.43 82.8809 904.174ZM84.5566 904.174C84.5459 905.56 86.3506 906.397 89.2832 906.387C92.2051 906.397 94.0098 905.56 94.0098 904.174C94.0098 902.777 92.2051 901.939 89.2832 901.939C86.3506 901.939 84.5459 902.777 84.5566 904.174ZM111.111 893.775C111.101 897.267 113.475 900.769 116.289 902.047L115.258 903.379C113.077 902.326 111.197 900.06 110.284 897.342C109.403 900.221 107.523 902.638 105.289 903.766L104.215 902.348C107.062 901.048 109.414 897.396 109.436 893.775V890.295H111.111V893.775ZM118.373 907.783V888.641H120.07V907.783H118.373ZM138.268 888.641V894.463H141.146V895.881H138.268V902.627H136.57V888.641H138.268ZM123.357 899.061C127.944 897.632 130.92 894.914 131.274 891.541H124.152V890.123H133.111C133.111 895.043 129.599 898.695 124.088 900.414L123.357 899.061ZM126.301 907.332V901.209H127.977V905.914H139.148V907.332H126.301ZM158.098 888.641V907.783H156.4V888.641H158.098ZM143.059 896.783C143.069 892.723 145.089 890.134 147.936 890.123C150.771 890.134 152.823 892.723 152.812 896.783C152.823 900.854 150.771 903.433 147.936 903.422C145.089 903.433 143.069 900.854 143.059 896.783ZM144.691 896.783C144.691 899.888 146.023 901.929 147.936 901.918C149.858 901.929 151.18 899.888 151.18 896.783C151.18 893.679 149.858 891.638 147.936 891.627C146.023 891.638 144.691 893.679 144.691 896.783ZM173.717 894.506C173.728 897.75 176.08 901.048 178.895 902.262L177.949 903.594C175.715 902.584 173.792 900.382 172.9 897.739C172.009 900.543 170.075 902.971 167.895 904.066L166.885 902.734C169.624 901.424 172.009 897.814 172.02 894.506V892.014H167.508V890.617H178.271V892.014H173.717V894.506ZM180.936 907.74V888.641H182.633V907.74H180.936ZM203.773 896.268V897.686H200.68V907.74H199.004V888.641H200.68V896.268H203.773ZM186.693 902.885V890.531H188.369V901.467C191.162 901.467 194.009 901.252 197.156 900.586L197.371 902.025C194.073 902.691 191.108 902.885 188.219 902.885H186.693ZM214.58 890.316V892.014H219.049V888.662H220.746V902.605H219.049V897.514H214.58V899.232H205.814V890.316H214.58ZM207.49 897.879H212.926V891.713H207.49V897.879ZM208.393 907.332V901.359H210.09V905.914H221.176V907.332H208.393ZM214.58 896.117H219.049V893.432H214.58V896.117ZM245.281 888.662V902.799H243.584V895.451H239.072V899.533H230.414V889.93H232.09V893.324H237.418V889.93H239.072V894.033H243.584V888.662H245.281ZM232.09 898.137H237.418V894.656H232.09V898.137ZM232.928 907.332V901.402H234.625V905.914H245.711V907.332H232.928ZM264.768 888.641V907.74H263.113V897.75H260.471V906.795H258.859V889.156H260.471V896.354H263.113V888.641H264.768ZM248.482 902.455C252.919 899.974 254.745 896.482 255.035 892.529H249.213V891.133H256.689C256.668 895.988 254.96 900.575 249.471 903.637L248.482 902.455ZM278.453 890.725V892.121H276.326V901.316C277.357 901.252 278.378 901.155 279.355 901.037L279.441 902.283C275.402 902.928 270.837 902.992 267.453 903.014L267.238 901.574C268.044 901.574 268.903 901.563 269.816 901.553V892.121H267.711V890.725H278.453ZM271.449 901.531C272.513 901.51 273.619 901.467 274.715 901.413V892.121H271.449V901.531ZM280.58 907.74V888.641H282.256V896.311H285.457V897.729H282.256V907.74H280.58ZM297.016 890.381V891.799H289.389V895.752H296.328V897.127H289.389V901.746C292.955 901.746 295.404 901.617 298.326 901.123L298.498 902.52C295.479 903.024 292.912 903.132 289.238 903.143H287.713V890.381H297.016ZM300.582 907.74V888.641H302.279V907.74H300.582ZM320.283 888.641V896.418H323.377V897.836H320.283V907.74H318.607V888.641H320.283ZM305.631 902.777C310.562 900.328 313.247 896.644 313.634 892.121H306.512V890.703H315.342C315.331 896.106 312.796 901.037 306.576 904.109L305.631 902.777ZM339.555 895.43V898.158H347.439V899.555H330.037V898.158H337.9V895.43H339.555ZM331.004 895.043C334.334 894.688 337.524 893.056 337.643 890.918H331.627V889.543H345.893V890.918H339.834C339.952 893.045 343.143 894.688 346.473 895.043L345.85 896.375C342.724 895.988 339.791 894.624 338.738 892.508C337.686 894.624 334.774 895.988 331.627 896.375L331.004 895.043ZM332.143 904.41C332.132 902.294 334.592 901.123 338.738 901.123C342.842 901.123 345.291 902.294 345.312 904.41C345.291 906.537 342.842 907.697 338.738 907.697C334.592 907.697 332.132 906.537 332.143 904.41ZM333.861 904.41C333.84 905.667 335.645 906.397 338.738 906.387C341.8 906.397 343.604 905.667 343.615 904.41C343.604 903.164 341.8 902.444 338.738 902.455C335.645 902.444 333.84 903.164 333.861 904.41ZM366.539 903.959V905.377H349.051V903.959H353.971V900.328H351.242V894.441H362.672V891.455H351.199V890.059H364.326V895.838H352.918V898.932H364.777V900.328H361.791V903.959H366.539ZM355.625 903.959H360.137V900.328H355.625V903.959ZM383.834 888.662V899.641H382.137V888.662H383.834ZM368.129 897.771C369.751 897.771 371.642 897.771 373.607 897.707V895.645H369.869V889.607H378.936V891.004H371.566V894.291H379.107V895.645H375.305V897.632C377.077 897.546 378.871 897.406 380.547 897.17L380.654 898.395C376.465 899.104 371.835 899.168 368.387 899.168L368.129 897.771ZM371.244 907.482V900.5H372.92V902.541H382.18V900.5H383.834V907.482H371.244ZM372.92 906.107H382.18V903.852H372.92V906.107ZM402.826 888.641V907.74H401.15V888.641H402.826ZM388.324 902.82V890.531H389.979V901.359C392.9 901.338 395.908 901.112 399.109 900.436L399.346 901.875C395.951 902.584 392.933 902.82 389.871 902.82H388.324ZM420.873 888.641V896.203H424.074V897.621H420.873V907.783H419.197V888.641H420.873ZM406.93 902.992V890.51H415.846V891.906H408.605V901.574C412.064 901.563 414.503 901.413 417.35 900.887L417.564 902.348C414.567 902.885 412.064 902.992 408.434 902.992H406.93ZM427.125 906.129C426.373 906.118 425.729 905.495 425.75 904.732C425.729 903.98 426.373 903.357 427.125 903.357C427.888 903.357 428.511 903.98 428.5 904.732C428.511 905.495 427.888 906.118 427.125 906.129Z" fill="#666666"/>
<rect x="60.5" y="938.5" width="1004" height="99" rx="9.5" fill="white"/>
<rect x="60.5" y="938.5" width="1004" height="99" rx="9.5" stroke="#DEDEDE"/>
<path d="M543.625 997.254C540.438 997.216 536.922 995.324 536.922 988.52C536.922 982.007 539.588 978.363 543.904 978.363C547.142 978.363 549.401 980.356 549.871 983.238H547.611C547.192 981.613 545.948 980.395 543.904 980.395C540.883 980.395 539.067 982.972 539.08 987.402H539.309C540.362 985.866 542.051 984.965 544.031 984.965C547.294 984.965 550.023 987.504 550.023 991.059C550.023 994.524 547.497 997.292 543.625 997.254ZM539.385 991.109C539.397 993.268 541.162 995.235 543.625 995.248C545.999 995.235 547.802 993.369 547.814 991.084C547.802 988.824 546.075 986.983 543.676 986.971C541.264 986.983 539.41 988.938 539.385 991.109ZM559.189 997.254C555.114 997.254 552.753 993.826 552.766 987.809C552.753 981.842 555.14 978.363 559.189 978.363C563.227 978.363 565.613 981.842 565.613 987.809C565.613 993.826 563.265 997.254 559.189 997.254ZM554.975 987.809C554.987 992.569 556.523 995.223 559.189 995.223C561.843 995.223 563.392 992.569 563.379 987.809C563.392 983.048 561.83 980.356 559.189 980.344C556.549 980.356 554.987 983.048 554.975 987.809ZM588.49 988.443V990.068H579.299V994.486H577.318V990.068H567.822V988.443H588.49ZM570.463 998.574V992.404H572.443V996.898H586.18V998.574H570.463ZM570.59 986.234V977.221H572.57V980.115H583.742V977.221H585.723V986.234H570.59ZM572.57 984.609H583.742V981.639H572.57V984.609Z" fill="#111111"/>
<path d="M60 1098C60 1081.43 73.4315 1068 90 1068H1035C1051.57 1068 1065 1081.43 1065 1098V1288H60V1098Z" fill="white"/>
<path d="M83.3496 1105.33V1131.37H81.1523V1105.33H83.3496ZM61.084 1124.08C66.7383 1120.72 69.5801 1116.02 70.0195 1110.57H62.1973V1108.67H72.3047C72.3047 1111.23 71.8945 1113.71 71.001 1116.02H75.6738V1106.03H77.8711V1130.05H75.6738V1117.9H70.1514C68.584 1120.93 66.0645 1123.61 62.4316 1125.75L61.084 1124.08ZM108.486 1105.36V1120.24H106.201V1105.36H108.486ZM87.5977 1112.83C87.583 1109.2 90.4688 1106.73 94.4238 1106.73C98.3789 1106.73 101.235 1109.2 101.25 1112.83C101.235 1116.4 98.3789 1118.89 94.4238 1118.89C90.4688 1118.89 87.583 1116.4 87.5977 1112.83ZM89.8535 1112.83C89.8242 1115.25 91.7432 1116.94 94.4238 1116.93C97.0752 1116.94 98.9941 1115.25 98.9941 1112.83C98.9941 1110.4 97.0752 1108.68 94.4238 1108.7C91.7432 1108.68 89.8242 1110.4 89.8535 1112.83ZM91.5527 1131.02V1121.65H108.486V1131.02H91.5527ZM93.8086 1129.15H106.23V1123.52H93.8086V1129.15ZM134.502 1105.33V1120.77H132.188V1116.67H126.094V1118.89H114.141V1107.32H126.094V1109.58H132.188V1105.33H134.502ZM116.426 1117.02H123.838V1109.2H116.426V1117.02ZM117.129 1126.45C117.114 1123.32 120.439 1121.51 125.859 1121.53C131.265 1121.51 134.59 1123.32 134.59 1126.45C134.59 1129.56 131.265 1131.31 125.859 1131.31C120.439 1131.31 117.114 1129.56 117.129 1126.45ZM119.414 1126.45C119.399 1128.34 121.86 1129.5 125.859 1129.5C129.844 1129.5 132.305 1128.34 132.305 1126.45C132.305 1124.49 129.844 1123.35 125.859 1123.32C121.86 1123.35 119.399 1124.49 119.414 1126.45ZM126.094 1114.73H132.188V1111.48H126.094V1114.73Z" fill="#111111"/>
<rect x="60.5" y="1158.5" width="1004" height="99" rx="9.5" fill="white"/>
<rect x="60.5" y="1158.5" width="1004" height="99" rx="9.5" stroke="#DEDEDE"/>
<path d="M109.627 1196.51V1213.22H107.621V1204.53H102.289V1209.36H92.0566V1198.01H94.0371V1202.02H100.334V1198.01H102.289V1202.86H107.621V1196.51H109.627ZM94.0371 1207.71H100.334V1203.59H94.0371V1207.71ZM95.0273 1218.57V1211.57H97.0332V1216.9H110.135V1218.57H95.0273ZM132.656 1196.48V1219.06H130.701V1207.25H127.578V1217.94H125.674V1197.09H127.578V1205.6H130.701V1196.48H132.656ZM113.41 1212.81C118.653 1209.88 120.812 1205.75 121.154 1201.08H114.273V1199.43H123.109C123.084 1205.17 121.065 1210.59 114.578 1214.21L113.41 1212.81ZM148.83 1198.95V1200.6H146.316V1211.46C147.535 1211.39 148.741 1211.27 149.896 1211.13L149.998 1212.61C145.225 1213.37 139.829 1213.45 135.83 1213.47L135.576 1211.77C136.528 1211.77 137.544 1211.76 138.623 1211.74V1200.6H136.135V1198.95H148.83ZM140.553 1211.72C141.81 1211.69 143.117 1211.64 144.412 1211.58V1200.6H140.553V1211.72ZM151.344 1219.06V1196.48H153.324V1205.55H157.107V1207.22H153.324V1219.06H151.344ZM170.768 1198.54V1200.22H161.754V1204.89H169.955V1206.51H161.754V1211.97C165.969 1211.97 168.863 1211.82 172.316 1211.24L172.52 1212.89C168.952 1213.48 165.918 1213.61 161.576 1213.62H159.773V1198.54H170.768ZM174.982 1219.06V1196.48H176.988V1219.06H174.982ZM198.443 1196.41V1201.89H201.871V1203.54H198.443V1208.9H196.463V1196.41H198.443ZM180.848 1200.14V1198.54H186.586V1196.26H188.566V1198.54H194.305V1200.14H180.848ZM182.143 1204.86C182.13 1202.58 184.288 1201.17 187.576 1201.16C190.852 1201.17 192.984 1202.58 193.01 1204.86C192.984 1207.16 190.852 1208.56 187.576 1208.57C184.288 1208.56 182.13 1207.16 182.143 1204.86ZM184.047 1211.57V1210.07H198.443V1215.07H186.053V1217.28H199.281V1218.8H184.098V1213.6H196.463V1211.57H184.047ZM184.047 1204.86C184.034 1206.22 185.431 1207.07 187.576 1207.07C189.709 1207.07 191.105 1206.22 191.131 1204.86C191.105 1203.52 189.709 1202.64 187.576 1202.63C185.431 1202.64 184.034 1203.52 184.047 1204.86ZM229.115 1196.48V1219.06H227.211V1196.48H229.115ZM209.818 1212.73C214.719 1209.83 217.182 1205.75 217.562 1201.03H210.783V1199.38H219.543C219.543 1201.6 219.188 1203.75 218.413 1205.75H222.463V1197.09H224.367V1217.91H222.463V1207.38H217.677C216.318 1210 214.135 1212.33 210.986 1214.18L209.818 1212.73ZM250.9 1196.51V1209.41H248.92V1196.51H250.9ZM232.797 1202.98C232.784 1199.84 235.285 1197.7 238.713 1197.7C242.141 1197.7 244.616 1199.84 244.629 1202.98C244.616 1206.08 242.141 1208.24 238.713 1208.24C235.285 1208.24 232.784 1206.08 232.797 1202.98ZM234.752 1202.98C234.727 1205.08 236.39 1206.55 238.713 1206.54C241.011 1206.55 242.674 1205.08 242.674 1202.98C242.674 1200.88 241.011 1199.39 238.713 1199.4C236.39 1199.39 234.727 1200.88 234.752 1202.98ZM236.225 1218.75V1210.63H250.9V1218.75H236.225ZM238.18 1217.13H248.945V1212.25H238.18V1217.13ZM280.557 1196.48V1219.06H278.652V1196.48H280.557ZM260.98 1213.04C264.129 1211.16 265.97 1207.03 265.957 1202.93V1200.8H261.615V1199.15H272.025V1200.8H267.887V1202.93C267.887 1206.83 269.651 1210.73 272.762 1212.53L271.543 1214C269.321 1212.67 267.747 1210.23 266.96 1207.36C266.147 1210.47 264.51 1213.13 262.25 1214.54L260.98 1213.04ZM270.299 1206.26V1204.63H274.107V1197.04H275.986V1217.89H274.107V1206.26H270.299ZM301.682 1197.45V1205.07H295.004V1207.96H304.297V1209.59H283.73V1207.96H293.023V1205.07H286.396V1197.45H301.682ZM286.016 1213.55V1211.95H301.758V1219.06H299.752V1213.55H286.016ZM288.352 1203.47H299.701V1199.05H288.352V1203.47ZM316.484 1196.89C321.499 1196.89 324.444 1198.27 324.457 1200.78C324.444 1203.34 321.499 1204.72 316.484 1204.74C311.444 1204.72 308.486 1203.34 308.486 1200.78C308.486 1198.27 311.444 1196.89 316.484 1196.89ZM306.201 1207.88V1206.26H326.768V1207.88H306.201ZM308.689 1211.36V1209.84H324.127V1214.89H310.721V1217.23H324.812V1218.8H308.74V1213.42H322.172V1211.36H308.689ZM310.568 1200.78C310.543 1202.35 312.739 1203.21 316.484 1203.21C320.229 1203.21 322.413 1202.35 322.426 1200.78C322.413 1199.29 320.229 1198.4 316.484 1198.39C312.739 1198.4 310.543 1199.29 310.568 1200.78ZM343.043 1200.65C343.043 1203.58 345.303 1206.39 348.604 1207.53L347.562 1209.1C345.023 1208.19 343.056 1206.3 342.091 1203.97C341.113 1206.56 339.019 1208.65 336.34 1209.64L335.299 1208.06C338.625 1206.87 341.037 1203.86 341.037 1200.67V1199.68H335.934V1198.06H348.096V1199.68H343.043V1200.65ZM338.727 1212.86V1211.21H353.91V1219.06H351.904V1212.86H338.727ZM347.385 1204.08V1202.4H351.904V1196.48H353.91V1210.02H351.904V1204.08H347.385ZM363.736 1198.24C366.809 1198.25 369.03 1200.89 369.335 1205.12H374.4V1196.48H376.381V1219.11H374.4V1206.77H369.36C369.145 1211.2 366.885 1213.97 363.736 1213.95C360.397 1213.97 358.062 1210.92 358.074 1206.11C358.062 1201.31 360.397 1198.25 363.736 1198.24ZM359.979 1206.11C359.991 1209.78 361.515 1212.19 363.736 1212.18C365.945 1212.19 367.494 1209.78 367.494 1206.11C367.494 1202.44 365.945 1200.03 363.736 1200.01C361.515 1200.03 359.991 1202.44 359.979 1206.11ZM391.539 1199.68C391.526 1202.71 395.551 1205.27 399.486 1205.85L398.75 1207.43C395.233 1206.83 391.793 1204.95 390.422 1202.24C389.051 1204.95 385.61 1206.83 382.145 1207.43L381.357 1205.85C385.28 1205.27 389.292 1202.71 389.305 1199.68V1199.53H382.068V1197.91H398.75V1199.53H391.539V1199.68ZM380.139 1211.01V1209.36H400.705V1211.01H391.361V1219.06H389.406V1211.01H380.139ZM409.312 1202.91C409.312 1206.5 411.064 1210.37 414.061 1212.15L412.918 1213.7C410.734 1212.38 409.173 1209.97 408.386 1207.21C407.561 1210.22 405.885 1212.81 403.625 1214.18L402.355 1212.68C405.479 1210.86 407.383 1206.86 407.383 1202.98V1198.62H409.312V1202.91ZM411.572 1206.29V1204.58H415.406V1196.97H417.285V1217.91H415.406V1206.29H411.572ZM420.027 1219.06V1196.48H421.957V1219.06H420.027ZM445.748 1214.49V1216.16H425.08V1214.49H430.209V1208.41C428.279 1207.4 427.111 1205.78 427.111 1203.72C427.111 1200.23 430.539 1197.93 435.363 1197.91C440.188 1197.93 443.615 1200.23 443.615 1203.72C443.615 1205.74 442.485 1207.34 440.619 1208.34V1214.49H445.748ZM429.041 1203.72C429.028 1206.25 431.656 1207.94 435.363 1207.94C439.032 1207.94 441.686 1206.25 441.686 1203.72C441.686 1201.19 439.032 1199.53 435.363 1199.56C431.656 1199.53 429.028 1201.19 429.041 1203.72ZM432.164 1214.49H438.613V1209.12C437.636 1209.37 436.544 1209.51 435.363 1209.51C434.208 1209.51 433.129 1209.38 432.164 1209.13V1214.49ZM449.938 1217.15C449.049 1217.14 448.287 1216.4 448.312 1215.5C448.287 1214.61 449.049 1213.88 449.938 1213.88C450.839 1213.88 451.575 1214.61 451.562 1215.5C451.575 1216.4 450.839 1217.14 449.938 1217.15Z" fill="#888888"/>
<path d="M60 1318C60 1301.43 73.4315 1288 90 1288H1035C1051.57 1288 1065 1301.43 1065 1318V1508H60V1318Z" fill="white"/>
<path d="M76.0254 1328.17V1330.07H73.125V1342.61C74.5312 1342.53 75.9229 1342.39 77.2559 1342.23L77.373 1343.93C71.8652 1344.81 65.6396 1344.9 61.0254 1344.93L60.7324 1342.96C61.8311 1342.96 63.0029 1342.95 64.248 1342.94V1330.07H61.377V1328.17H76.0254ZM66.4746 1342.91C67.9248 1342.88 69.4336 1342.82 70.9277 1342.75V1330.07H66.4746V1342.91ZM78.9258 1351.37V1325.33H81.2109V1335.79H85.5762V1337.72H81.2109V1351.37H78.9258ZM101.338 1327.7V1329.63H90.9375V1335.03H100.4V1336.9H90.9375V1343.2C95.8008 1343.2 99.1406 1343.02 103.125 1342.35L103.359 1344.25C99.2432 1344.94 95.7422 1345.09 90.7324 1345.1H88.6523V1327.7H101.338ZM106.201 1351.37V1325.33H108.516V1351.37H106.201ZM141.943 1325.36V1344.4H139.658V1325.36H141.943ZM121.055 1333.56C121.04 1329.81 123.984 1327.19 127.881 1327.17C131.777 1327.19 134.692 1329.81 134.707 1333.56C134.692 1337.35 131.777 1339.99 127.881 1339.98C123.984 1339.99 121.04 1337.35 121.055 1333.56ZM123.311 1333.56C123.281 1336.15 125.244 1337.96 127.881 1337.96C130.474 1337.96 132.451 1336.15 132.451 1333.56C132.451 1331.01 130.474 1329.2 127.881 1329.2C125.244 1329.2 123.281 1331.01 123.311 1333.56ZM125.127 1350.82V1342.47H127.412V1348.88H142.764V1350.82H125.127ZM167.842 1325.36V1345.13H165.527V1342.44H160.137V1340.77H165.527V1325.36H167.842ZM146.221 1337.43C151.069 1337.4 157.603 1337.35 163.184 1336.67L163.33 1338.34C161.016 1338.7 158.569 1338.94 156.182 1339.08V1344.22H153.867V1339.2C151.23 1339.3 148.726 1339.3 146.543 1339.3L146.221 1337.43ZM148.33 1330.95C148.315 1328.21 150.923 1326.41 154.775 1326.41C158.599 1326.41 161.206 1328.21 161.221 1330.95C161.206 1333.74 158.599 1335.46 154.775 1335.46C150.923 1335.46 148.315 1333.74 148.33 1330.95ZM149.971 1350.82V1343.2H152.285V1348.88H168.486V1350.82H149.971ZM150.527 1330.95C150.498 1332.65 152.227 1333.75 154.775 1333.77C157.251 1333.75 159.009 1332.65 159.023 1330.95C159.009 1329.28 157.251 1328.14 154.775 1328.17C152.227 1328.14 150.498 1329.28 150.527 1330.95Z" fill="#111111"/>
<rect x="60.5" y="1378.5" width="1004" height="99" rx="9.5" fill="white"/>
<rect x="60.5" y="1378.5" width="1004" height="99" rx="9.5" stroke="#DEDEDE"/>
<path d="M545.361 1437L545.336 1435.32L551.607 1428.72C553.778 1426.41 554.819 1425.17 554.832 1423.47C554.819 1421.58 553.245 1420.36 551.176 1420.34C548.979 1420.36 547.608 1421.74 547.596 1423.8H545.438C545.412 1420.55 547.926 1418.36 551.252 1418.36C554.591 1418.36 556.952 1420.61 556.965 1423.47C556.952 1425.52 556 1427.12 552.75 1430.47L548.535 1434.82V1434.97H557.295V1437H545.361ZM578.521 1416.48V1429.87H576.516V1426.31H571.234V1428.24H560.875V1418.21H571.234V1420.17H576.516V1416.48H578.521ZM562.855 1426.62H569.279V1419.84H562.855V1426.62ZM563.465 1434.79C563.452 1432.07 566.334 1430.51 571.031 1430.53C575.716 1430.51 578.598 1432.07 578.598 1434.79C578.598 1437.48 575.716 1439.01 571.031 1439.01C566.334 1439.01 563.452 1437.48 563.465 1434.79ZM565.445 1434.79C565.433 1436.43 567.565 1437.43 571.031 1437.43C574.484 1437.43 576.617 1436.43 576.617 1434.79C576.617 1433.09 574.484 1432.1 571.031 1432.07C567.565 1432.1 565.433 1433.09 565.445 1434.79ZM571.234 1424.63H576.516V1421.82H571.234V1424.63Z" fill="#111111"/>
<path d="M60 1538C60 1521.43 73.4315 1508 90 1508H1035C1051.57 1508 1065 1521.43 1065 1538V1858H60V1538Z" fill="white"/>
<path d="M82.6465 1545.33V1558.8H80.332V1552.04H74.5312V1550.13H80.332V1545.33H82.6465ZM61.0254 1557.02C64.9512 1555.71 67.6465 1552.45 67.6758 1548.64V1546.18H69.9316V1548.64C69.9023 1552.05 72.5977 1555.19 76.4062 1556.43L75.1758 1558.22C72.29 1557.19 69.9902 1555.14 68.833 1552.51C67.7197 1555.48 65.3613 1557.75 62.2852 1558.86L61.0254 1557.02ZM65.7715 1561.97V1560.12H82.6465V1566.33H68.0859V1569.18H83.6133V1571.02H65.8301V1564.58H80.3613V1561.97H65.7715ZM108.574 1545.33V1560.77H106.26V1556.67H100.166V1558.89H88.2129V1547.32H100.166V1549.58H106.26V1545.33H108.574ZM90.498 1557.02H97.9102V1549.2H90.498V1557.02ZM91.2012 1566.45C91.1865 1563.32 94.5117 1561.51 99.9316 1561.53C105.337 1561.51 108.662 1563.32 108.662 1566.45C108.662 1569.56 105.337 1571.31 99.9316 1571.31C94.5117 1571.31 91.1865 1569.56 91.2012 1566.45ZM93.4863 1566.45C93.4717 1568.34 95.9326 1569.5 99.9316 1569.5C103.916 1569.5 106.377 1568.34 106.377 1566.45C106.377 1564.49 103.916 1563.35 99.9316 1563.32C95.9326 1563.35 93.4717 1564.49 93.4863 1566.45ZM100.166 1554.73H106.26V1551.48H100.166V1554.73Z" fill="#111111"/>
<rect x="60.5" y="1598.5" width="1004" height="229" rx="9.5" fill="white"/>
<rect x="60.5" y="1598.5" width="1004" height="229" rx="9.5" stroke="#DEDEDE"/>
<path d="M103.889 1638.95V1640.6H101.375V1651.46C102.594 1651.39 103.8 1651.27 104.955 1651.13L105.057 1652.61C100.283 1653.37 94.8877 1653.45 90.8887 1653.47L90.6348 1651.77C91.5869 1651.77 92.6025 1651.76 93.6816 1651.74V1640.6H91.1934V1638.95H103.889ZM95.6113 1651.72C96.8682 1651.69 98.1758 1651.64 99.4707 1651.58V1640.6H95.6113V1651.72ZM106.402 1659.06V1636.48H108.383V1645.55H112.166V1647.22H108.383V1659.06H106.402ZM125.826 1638.54V1640.22H116.812V1644.89H125.014V1646.51H116.812V1651.97C121.027 1651.97 123.922 1651.82 127.375 1651.24L127.578 1652.89C124.011 1653.48 120.977 1653.61 116.635 1653.62H114.832V1638.54H125.826ZM130.041 1659.06V1636.48H132.047V1659.06H130.041ZM154.467 1636.51V1653.65H152.461V1651.31H147.789V1649.87H152.461V1636.51H154.467ZM135.729 1646.97C139.931 1646.95 145.593 1646.91 150.43 1646.31L150.557 1647.76C148.551 1648.08 146.431 1648.28 144.361 1648.41V1652.86H142.355V1648.51C140.07 1648.6 137.899 1648.6 136.008 1648.6L135.729 1646.97ZM137.557 1641.36C137.544 1638.99 139.804 1637.42 143.143 1637.42C146.456 1637.42 148.716 1638.99 148.729 1641.36C148.716 1643.77 146.456 1645.27 143.143 1645.27C139.804 1645.27 137.544 1643.77 137.557 1641.36ZM138.979 1658.57V1651.97H140.984V1656.9H155.025V1658.57H138.979ZM139.461 1641.36C139.436 1642.83 140.934 1643.78 143.143 1643.8C145.288 1643.78 146.812 1642.83 146.824 1641.36C146.812 1639.91 145.288 1638.92 143.143 1638.95C140.934 1638.92 139.436 1639.91 139.461 1641.36ZM185.52 1654.49V1656.16H164.852V1654.49H174.145V1648.98H167.289V1638.39H182.955V1648.98H176.1V1654.49H185.52ZM169.244 1647.38H181.025V1639.99H169.244V1647.38ZM195.447 1640.22C195.46 1643.16 197.897 1645.78 201.262 1646.79L200.246 1648.37C197.605 1647.53 195.485 1645.71 194.47 1643.38C193.467 1645.88 191.334 1647.83 188.643 1648.75L187.602 1647.17C191.004 1646.09 193.429 1643.31 193.441 1640.22V1639.63H188.16V1638.01H200.652V1639.63H195.447V1640.22ZM191.334 1658.75V1649.81H193.314V1652.56H203.979V1649.81H205.959V1658.75H191.334ZM193.314 1657.13H203.979V1654.16H193.314V1657.13ZM203.979 1648.7V1636.48H205.959V1648.7H203.979ZM227.744 1637.47V1638.92C227.744 1640.45 227.744 1642.4 227.236 1644.94H230.461V1646.54H209.793V1644.94H225.23C225.751 1642.43 225.776 1640.58 225.764 1639.1H212.408V1637.47H227.744ZM212.256 1650.42V1648.82H227.82V1654.51H214.287V1657.18H228.404V1658.8H212.281V1652.94H225.84V1650.42H212.256ZM242.547 1636.89C247.562 1636.89 250.507 1638.27 250.52 1640.78C250.507 1643.34 247.562 1644.72 242.547 1644.74C237.507 1644.72 234.549 1643.34 234.549 1640.78C234.549 1638.27 237.507 1636.89 242.547 1636.89ZM232.264 1647.88V1646.26H252.83V1647.88H232.264ZM234.752 1651.36V1649.84H250.189V1654.89H236.783V1657.23H250.875V1658.8H234.803V1653.42H248.234V1651.36H234.752ZM236.631 1640.78C236.605 1642.35 238.802 1643.21 242.547 1643.21C246.292 1643.21 248.476 1642.35 248.488 1640.78C248.476 1639.29 246.292 1638.4 242.547 1638.39C238.802 1638.4 236.605 1639.29 236.631 1640.78ZM268.902 1643.42C268.877 1647.03 271.492 1651.02 274.768 1652.58L273.625 1654.16C271.086 1652.91 268.94 1650.25 267.925 1647.19C266.884 1650.5 264.624 1653.42 262.098 1654.71L260.879 1653.14C264.129 1651.55 266.922 1647.26 266.947 1643.42V1640.47H261.691V1638.82H273.98V1640.47H268.902V1643.42ZM276.748 1659.06V1636.48H278.729V1645.62H282.512V1647.33H278.729V1659.06H276.748ZM304.373 1649.36V1651.01H298.914V1659.06H296.908V1651.01H291.119V1659.06H289.062V1651.01H283.705V1649.36H304.373ZM286.041 1642.32C286.054 1639.32 289.24 1637.41 293.988 1637.4C298.724 1637.41 301.936 1639.32 301.936 1642.32C301.936 1645.33 298.724 1647.21 293.988 1647.2C289.24 1647.21 286.054 1645.33 286.041 1642.32ZM288.098 1642.32C288.072 1644.32 290.472 1645.6 293.988 1645.6C297.505 1645.6 299.892 1644.32 299.904 1642.32C299.892 1640.32 297.505 1639.02 293.988 1639.02C290.472 1639.02 288.072 1640.32 288.098 1642.32ZM326.844 1648.06V1649.69H306.176V1648.06H315.52V1645.88H308.867V1640.62H322.172V1638.54H308.791V1636.97H324.178V1642.12H310.848V1644.3H324.66V1645.88H317.475V1648.06H326.844ZM308.943 1658.75V1650.83H310.949V1653.04H322.223V1650.83H324.178V1658.75H308.943ZM310.949 1657.15H322.223V1654.61H310.949V1657.15ZM347.994 1636.48V1659.06H346.09V1636.48H347.994ZM328.697 1652.73C333.598 1649.83 336.061 1645.75 336.441 1641.03H329.662V1639.38H338.422C338.422 1641.6 338.066 1643.75 337.292 1645.75H341.342V1637.09H343.246V1657.91H341.342V1647.38H336.556C335.197 1650 333.014 1652.33 329.865 1654.18L328.697 1652.73ZM365.514 1640.65C365.514 1643.58 367.773 1646.39 371.074 1647.53L370.033 1649.1C367.494 1648.19 365.526 1646.3 364.562 1643.97C363.584 1646.56 361.489 1648.65 358.811 1649.64L357.77 1648.06C361.096 1646.87 363.508 1643.86 363.508 1640.67V1639.68H358.404V1638.06H370.566V1639.68H365.514V1640.65ZM361.197 1652.86V1651.21H376.381V1659.06H374.375V1652.86H361.197ZM369.855 1644.08V1642.4H374.375V1636.48H376.381V1650.02H374.375V1644.08H369.855ZM386.207 1638.24C389.279 1638.25 391.501 1640.89 391.806 1645.12H396.871V1636.48H398.852V1659.11H396.871V1646.77H391.831C391.615 1651.2 389.355 1653.97 386.207 1653.95C382.868 1653.97 380.532 1650.92 380.545 1646.11C380.532 1641.31 382.868 1638.25 386.207 1638.24ZM382.449 1646.11C382.462 1649.78 383.985 1652.19 386.207 1652.18C388.416 1652.19 389.965 1649.78 389.965 1646.11C389.965 1642.44 388.416 1640.03 386.207 1640.01C383.985 1640.03 382.462 1642.44 382.449 1646.11ZM414.01 1639.68C413.997 1642.71 418.021 1645.27 421.957 1645.85L421.221 1647.43C417.704 1646.83 414.264 1644.95 412.893 1642.24C411.521 1644.95 408.081 1646.83 404.615 1647.43L403.828 1645.85C407.751 1645.27 411.763 1642.71 411.775 1639.68V1639.53H404.539V1637.91H421.221V1639.53H414.01V1639.68ZM402.609 1651.01V1649.36H423.176V1651.01H413.832V1659.06H411.877V1651.01H402.609ZM431.783 1642.91C431.783 1646.5 433.535 1650.37 436.531 1652.15L435.389 1653.7C433.205 1652.38 431.644 1649.97 430.856 1647.21C430.031 1650.22 428.355 1652.81 426.096 1654.18L424.826 1652.68C427.949 1650.86 429.854 1646.86 429.854 1642.98V1638.62H431.783V1642.91ZM434.043 1646.29V1644.58H437.877V1636.97H439.756V1657.91H437.877V1646.29H434.043ZM442.498 1659.06V1636.48H444.428V1659.06H442.498ZM468.219 1654.49V1656.16H447.551V1654.49H452.68V1648.41C450.75 1647.4 449.582 1645.78 449.582 1643.72C449.582 1640.23 453.01 1637.93 457.834 1637.91C462.658 1637.93 466.086 1640.23 466.086 1643.72C466.086 1645.74 464.956 1647.34 463.09 1648.34V1654.49H468.219ZM451.512 1643.72C451.499 1646.25 454.127 1647.94 457.834 1647.94C461.503 1647.94 464.156 1646.25 464.156 1643.72C464.156 1641.19 461.503 1639.53 457.834 1639.56C454.127 1639.53 451.499 1641.19 451.512 1643.72ZM454.635 1654.49H461.084V1649.12C460.106 1649.37 459.015 1649.51 457.834 1649.51C456.679 1649.51 455.6 1649.38 454.635 1649.13V1654.49ZM472.408 1657.15C471.52 1657.14 470.758 1656.4 470.783 1655.5C470.758 1654.61 471.52 1653.88 472.408 1653.88C473.31 1653.88 474.046 1654.61 474.033 1655.5C474.046 1656.4 473.31 1657.14 472.408 1657.15Z" fill="#888888"/>
<rect x="60" y="1894" width="1005" height="182" rx="50" fill="#971CEF"/>
<path d="M416.529 1961.66V1995.54H410.893V1978.62H401.65V1988.07H380.17V1964.66H385.807V1972.07H396.064V1964.66H401.65V1974.05H410.893V1961.66H416.529ZM385.807 1983.6H396.064V1976.44H385.807V1983.6ZM386.264 2006.61V1992.18H392.002V2002.04H417.545V2006.61H386.264ZM462.436 1961.61V2007.52H457.002V1983.96H452.076V2005.39H446.795V1962.83H452.076V1979.39H457.002V1961.61H462.436ZM422.674 1994.01C432.449 1988.38 436.588 1981.11 437.4 1971.92H424.807V1967.4H442.885C442.885 1979.82 438.975 1990.48 425.924 1997.92L422.674 1994.01ZM494.174 1966.08V1970.7H489.756V1991.35C491.838 1991.19 493.895 1991.02 495.85 1990.76L496.104 1994.82C486.633 1996.47 475.969 1996.65 468.021 1996.65L467.361 1992.03C469.088 1992.03 470.941 1992.01 472.896 1992.01V1970.7H468.529V1966.08H494.174ZM478.381 1991.9C480.336 1991.85 482.316 1991.78 484.322 1991.68V1970.7H478.381V1991.9ZM498.287 2007.52V1961.61H503.924V1979.39H510.982V1984.01H503.924V2007.52H498.287ZM538.557 1965.57V1970.2H521.139V1978.37H536.729V1982.84H521.139V1992.29C528.654 1992.26 534.393 1991.98 540.994 1990.91L541.553 1995.48C534.316 1996.63 527.867 1996.86 519.412 1996.86H515.553V1965.57H538.557ZM545.564 2007.52V1961.61H551.252V2007.52H545.564ZM584.514 1970.14C584.539 1975.1 587.434 1980.1 593.451 1982.38L590.455 1986.7C586.367 1985.15 583.523 1982.21 581.873 1978.65C580.197 1982.74 577.201 1986.24 572.834 1988.07L569.787 1983.75C576.109 1980.96 579.055 1975.22 579.08 1970.14V1964.46H584.514V1970.14ZM578.217 1998.99C578.191 1993.71 584.285 1990.56 593.959 1990.56C603.557 1990.56 609.676 1993.71 609.701 1998.99C609.676 2004.29 603.557 2007.47 593.959 2007.47C584.285 2007.47 578.191 2004.29 578.217 1998.99ZM583.854 1998.99C583.828 2001.71 587.586 2003.18 593.959 2003.15C600.23 2003.18 603.988 2001.71 604.014 1998.99C603.988 1996.3 600.23 1994.82 593.959 1994.82C587.586 1994.82 583.828 1996.3 583.854 1998.99ZM594.213 1988.38V1962.53H599.494V1973.24H604.064V1961.66H609.447V1989.8H604.064V1977.86H599.494V1988.38H594.213ZM631.943 1968.21C631.918 1974.46 635.574 1980.17 642.76 1982.43L639.713 1986.85C634.711 1985.07 631.207 1981.72 629.252 1977.38C627.221 1982.38 623.387 1986.32 617.826 1988.27L614.83 1983.7C622.422 1981.21 626.23 1975.1 626.256 1968.47V1964.1H631.943V1968.21ZM622.447 1998.68C622.396 1993.1 628.363 1989.82 638.037 1989.85C647.762 1989.82 653.703 1993.1 653.729 1998.68C653.703 2004.27 647.762 2007.47 638.037 2007.47C628.363 2007.47 622.396 2004.27 622.447 1998.68ZM628.033 1998.68C628.008 2001.48 631.664 2003.03 638.037 2003.05C644.461 2003.03 648.092 2001.48 648.092 1998.68C648.092 1995.79 644.461 1994.24 638.037 1994.21C631.664 1994.24 628.008 1995.79 628.033 1998.68ZM638.799 1975.12V1970.5H647.939V1961.61H653.576V1988.63H647.939V1975.12H638.799ZM673.939 1963.59C680.643 1963.59 685.416 1967.33 685.467 1972.84C685.416 1977.41 681.988 1980.83 676.885 1981.77V1985.48C680.719 1985.25 684.553 1984.92 688.107 1984.41L688.564 1988.53C679.018 1990.23 668.354 1990.43 660.584 1990.41L659.975 1985.89C663.275 1985.89 667.135 1985.86 671.197 1985.73V1981.8C665.941 1980.91 662.438 1977.48 662.463 1972.84C662.438 1967.33 667.211 1963.59 673.939 1963.59ZM666.271 2006.55V1993.61H671.908V2001.98H698.061V2006.55H666.271ZM667.744 1972.84C667.693 1975.86 670.283 1977.74 673.939 1977.76C677.621 1977.74 680.109 1975.86 680.135 1972.84C680.109 1969.74 677.621 1967.91 673.939 1967.91C670.283 1967.91 667.693 1969.74 667.744 1972.84ZM690.799 1996.7V1961.66H696.436V1976.49H702.631V1981.16H696.436V1996.7H690.799ZM746.963 1997.52V2002.19H705.018V1997.52H716.139V1989.95H709.994V1974.97H736.4V1969.33H709.893V1964.76H741.986V1979.49H715.631V1985.38H743.053V1989.95H736.35V1997.52H746.963ZM721.623 1997.52H730.814V1989.95H721.623V1997.52Z" fill="white"/>
<defs>
<clipPath id="clip0_302_313">
<rect width="45" height="45" fill="white" transform="translate(60 208.5)"/>
</clipPath>
</defs>
</svg>
